<?xml version="1.0" standalone="no"?>
<!DOCTYPE svg PUBLIC "-//W3C//DTD SVG 20010904//EN"
 "http://www.w3.org/TR/2001/REC-SVG-20010904/DTD/svg10.dtd">
<svg version="1.0" xmlns="http://www.w3.org/2000/svg"
 width="747.000000pt" height="928.000000pt" viewBox="0 0 747.000000 928.000000"
 preserveAspectRatio="xMidYMid meet">
<metadata>
Created by potrace 1.16, written by Peter Selinger 2001-2019
</metadata>
<g transform="translate(0.000000,928.000000) scale(0.100000,-0.100000)"
fill="#000000" stroke="none">
<path d="M2158 9264 c-4 -3 -46 -7 -95 -9 -221 -7 -280 -12 -301 -24 -12 -6
-26 -10 -31 -7 -4 3 -24 -3 -43 -14 -24 -13 -52 -18 -88 -16 -58 2 -158 -15
-168 -30 -11 -16 -63 -35 -81 -30 -20 7 -52 -13 -33 -21 22 -9 13 -26 -10 -19
-13 4 -102 8 -198 11 -139 3 -186 1 -230 -12 -59 -16 -100 -46 -100 -72 0 -9
-29 -57 -65 -106 -73 -100 -112 -157 -135 -197 -8 -15 -43 -57 -76 -95 -34
-37 -83 -94 -109 -125 l-46 -58 73 -2 c113 -4 251 3 270 13 10 5 19 5 22 0 12
-18 129 -33 176 -22 105 24 293 6 373 -36 18 -9 52 -20 77 -24 69 -11 170 -36
219 -53 24 -9 67 -16 95 -16 127 0 278 -67 391 -172 40 -37 78 -68 85 -68 7 0
10 -7 6 -16 -5 -13 -4 -14 7 -6 10 9 23 5 53 -15 21 -14 45 -33 52 -42 7 -9
15 -14 18 -13 8 5 64 -46 64 -58 0 -6 6 -10 13 -10 28 0 125 -185 141 -269 5
-26 3 -32 -7 -25 -7 5 -4 1 6 -8 11 -10 30 -18 43 -18 13 0 24 -4 24 -10 0 -5
16 -10 36 -10 31 0 35 -2 29 -21 -4 -12 -7 -47 -7 -79 0 -53 4 -63 42 -111 23
-29 55 -79 71 -111 16 -32 33 -58 37 -58 8 0 9 -10 18 -212 4 -93 2 -171 -5
-211 -10 -55 -9 -69 6 -98 10 -19 17 -52 16 -74 0 -27 5 -44 17 -52 9 -7 23
-27 30 -45 23 -61 124 -263 154 -308 48 -72 94 -116 171 -166 73 -47 99 -79
180 -229 15 -27 42 -70 60 -95 18 -25 40 -61 50 -80 10 -19 36 -58 59 -87 100
-125 198 -274 200 -303 1 -16 11 -40 23 -52 31 -35 37 -71 38 -210 0 -140 8
-161 72 -203 17 -11 38 -31 46 -45 19 -31 84 -100 94 -100 12 -1 68 -81 65
-92 -2 -6 12 -8 35 -4 159 26 255 14 341 -44 l56 -38 28 23 c15 13 50 31 77
40 36 11 60 28 85 60 20 24 32 46 27 50 -6 3 -15 -3 -21 -14 -6 -12 -16 -18
-25 -15 -17 7 -20 55 -6 82 25 47 41 93 41 119 0 15 7 39 15 53 45 80 49 95
49 202 l1 107 -40 41 c-40 41 -40 41 -41 123 -2 79 -13 168 -34 252 -5 22 -10
65 -10 97 0 91 -37 279 -71 364 -17 45 -34 112 -39 154 -5 41 -14 118 -20 170
-13 106 -11 131 20 275 12 55 23 118 25 139 1 22 9 44 17 50 8 6 13 16 11 23
-6 17 27 124 37 118 10 -6 22 23 15 36 -3 5 1 29 10 55 12 35 13 54 5 78 -5
17 -17 57 -25 88 -11 42 -29 73 -66 115 -71 81 -94 131 -143 308 -13 50 -34
117 -46 150 -12 33 -23 75 -25 94 -1 27 -10 40 -35 57 -18 13 -37 21 -42 18
-5 -3 -7 -2 -6 3 1 4 -3 18 -10 31 -26 46 18 117 96 156 34 17 112 126 112
156 0 9 4 20 9 25 7 9 17 45 60 238 15 69 6 216 -19 290 -13 37 -29 67 -36 67
-16 0 -44 -39 -44 -62 0 -9 -12 -48 -26 -87 -23 -62 -38 -82 -128 -173 -193
-195 -218 -225 -221 -260 -3 -31 -5 -33 -40 -31 -49 3 -88 28 -110 72 -10 20
-34 50 -53 66 l-33 30 12 69 c7 44 9 107 5 167 -5 79 -2 113 14 183 12 48 18
91 14 97 -8 14 -40 5 -95 -25 -79 -45 -113 -90 -164 -221 -26 -66 -51 -124
-55 -128 -4 -5 -41 16 -81 47 -70 53 -215 136 -238 136 -6 0 -38 26 -72 58
-33 31 -70 61 -82 67 -12 5 -27 14 -33 20 -18 16 -52 38 -83 55 -16 8 -49 29
-72 46 -80 57 -238 135 -312 154 -41 10 -90 25 -109 33 -20 9 -39 13 -42 9 -3
-3 -6 0 -6 7 0 9 -12 10 -43 6 -28 -4 -58 -1 -87 9 -45 16 -111 21 -122 10z
m2030 -2117 c-10 -20 -10 -21 5 -8 10 7 17 22 17 32 0 25 17 24 25 -2 4 -11 9
-18 12 -15 3 2 15 -7 28 -22 17 -20 20 -30 12 -43 -8 -13 -7 -21 5 -32 16 -16
15 -91 -2 -112 -5 -6 -7 -20 -4 -32 3 -11 1 -24 -4 -27 -6 -3 -8 2 -5 13 3 13
-2 21 -17 26 -15 5 -20 13 -17 26 4 13 -3 25 -19 35 -16 11 -24 26 -24 46 0
21 -6 31 -20 35 -11 3 -20 10 -21 17 -3 26 4 62 13 74 7 8 7 12 -1 12 -6 0
-11 5 -11 10 0 7 7 7 20 0 17 -9 19 -14 8 -33z m219 -1629 c1 -12 -5 -30 -13
-39 -11 -12 -12 -22 -5 -43 12 -30 25 -36 16 -6 -6 18 -2 20 31 20 30 0 34 -2
25 -14 -9 -11 -9 -15 1 -19 8 -3 1 -9 -16 -16 -19 -8 -26 -16 -22 -27 3 -9 6
-24 6 -33 0 -14 7 -18 25 -16 14 2 25 -1 25 -6 0 -5 -11 -11 -25 -15 -29 -7
-32 -19 -9 -28 12 -5 14 -9 5 -20 -8 -10 -8 -16 4 -26 8 -7 12 -17 9 -22 -4
-6 -10 -5 -14 3 -6 8 -11 1 -15 -22 -3 -19 -12 -42 -19 -51 -11 -15 -16 -16
-55 -2 -43 15 -44 15 -71 -16 -16 -18 -37 -30 -51 -30 -14 0 -32 -6 -40 -12
-21 -18 -49 -64 -49 -82 0 -8 -4 -17 -8 -20 -5 -3 -7 8 -4 23 2 16 -1 32 -7
35 -17 11 -13 26 7 27 13 0 14 2 2 6 -8 3 -19 12 -23 20 -5 7 -12 11 -16 8 -5
-2 -11 6 -13 20 -6 29 20 39 39 15 11 -13 12 -13 13 1 0 9 -7 19 -15 23 -11 4
-14 13 -9 32 7 25 5 27 -22 21 -16 -3 -23 -4 -16 -1 6 3 12 10 12 15 0 23 37
45 70 41 30 -3 32 -2 21 12 -8 9 -25 17 -40 17 -17 1 -20 3 -8 6 9 2 17 9 17
14 0 6 4 8 9 5 5 -4 20 -2 33 3 12 6 17 10 9 10 -8 1 -11 7 -7 17 3 8 1 25 -5
36 -9 18 -9 20 4 15 9 -3 21 1 28 9 7 8 18 13 25 10 16 -6 34 23 27 42 -3 6
-12 12 -20 12 -9 0 -13 6 -10 14 3 8 1 17 -6 19 -7 2 -9 8 -5 12 4 4 13 3 20
-3 13 -10 18 -12 38 -12 6 0 10 -7 10 -15 0 -18 16 -20 24 -2 3 6 3 2 0 -10
-3 -13 -2 -23 3 -23 13 0 56 50 50 57 -4 3 1 12 11 19 9 7 17 14 17 14 1 0 1
-10 2 -22z m-467 -143 c0 6 5 2 11 -8 5 -9 7 -23 2 -30 -9 -15 -4 -50 9 -58
11 -7 1 -49 -12 -49 -5 0 -10 7 -12 15 -2 13 -5 12 -15 -4 -11 -17 -10 -23 9
-41 15 -14 25 -17 34 -9 8 7 14 7 19 -1 3 -5 1 -10 -5 -10 -7 0 -10 -7 -6 -15
3 -8 -2 -19 -12 -24 -9 -6 -12 -11 -6 -11 19 0 24 -40 6 -47 -9 -4 -18 -1 -20
5 -2 7 -9 9 -14 6 -8 -5 -9 4 -5 28 3 19 1 41 -5 49 -8 11 -9 10 -4 -3 3 -11
-2 -22 -14 -28 -21 -11 -27 -1 -10 16 8 8 6 15 -5 24 -8 7 -15 21 -15 32 0 14
-5 18 -19 13 -15 -4 -20 1 -25 26 -8 41 -5 43 24 16 29 -26 57 -30 64 -11 3 8
1 14 -4 14 -6 0 -10 12 -10 26 0 21 -4 25 -20 21 -11 -3 -20 0 -20 6 0 7 -3
22 -6 35 -4 14 -2 22 6 22 6 0 19 7 27 16 15 15 18 14 34 -8 10 -12 19 -18 19
-13z"/>
<path d="M5720 6589 c-90 -10 -173 -41 -234 -88 -55 -43 -103 -100 -97 -116 2
-5 4 -14 5 -20 1 -5 5 -15 8 -21 7 -11 -26 -46 -53 -57 -9 -3 -10 -6 -2 -6 7
-1 10 -7 7 -15 -3 -8 -1 -17 5 -21 14 -8 14 -35 1 -35 -6 0 -10 7 -8 16 5 25
-16 27 -45 4 -31 -24 -26 -50 9 -50 21 0 23 -3 15 -18 -5 -10 -20 -24 -33 -31
-25 -13 -56 -74 -34 -65 8 3 11 -8 9 -33 -2 -21 -3 -51 -3 -68 l0 -30 -15 29
c-8 15 -12 33 -8 39 4 6 1 7 -7 2 -10 -6 -12 -3 -8 13 4 14 1 22 -11 25 -14 4
-14 5 2 6 9 0 17 6 17 11 0 6 -6 9 -12 8 -7 -2 -12 3 -10 11 2 8 0 33 -5 55
l-7 41 -7 -55 c-4 -30 -9 -66 -13 -80 -5 -21 -5 -22 3 -5 9 19 10 19 10 -2 1
-12 -8 -27 -18 -32 -13 -7 -21 -27 -26 -61 -4 -27 -11 -50 -16 -50 -5 0 -9 6
-10 13 0 6 -6 -2 -12 -19 -7 -17 -19 -38 -28 -46 -12 -12 -16 -41 -17 -122 -2
-102 -1 -108 34 -185 28 -62 40 -78 53 -74 21 8 32 26 21 33 -5 3 -5 11 0 20
7 11 17 -3 40 -55 55 -121 64 -139 88 -168 12 -16 22 -39 22 -52 0 -13 5 -27
10 -30 6 -3 10 -17 10 -31 0 -13 5 -24 10 -24 6 0 10 -6 10 -14 0 -7 7 -30 15
-51 13 -28 19 -34 29 -26 11 9 13 0 14 -46 0 -86 1 -95 12 -88 11 7 14 -8 3
-19 -9 -8 -15 -67 -13 -116 6 -113 0 -166 -27 -235 -8 -22 -22 -58 -31 -80 -8
-22 -29 -52 -46 -67 l-31 -27 65 24 c36 12 85 35 110 49 25 14 50 26 56 26 6
0 29 7 49 16 26 10 34 18 26 23 -10 6 -9 10 4 15 24 9 27 8 20 -6 -4 -7 -1 -6
7 3 7 9 20 16 28 17 8 1 24 3 35 4 71 6 123 -3 169 -32 42 -27 46 -33 35 -47
-12 -14 -11 -15 9 -9 30 10 85 -12 78 -30 -3 -9 2 -14 13 -14 11 0 27 -3 35
-6 13 -5 15 -2 9 12 -6 17 -5 17 10 5 15 -12 17 -12 11 4 -5 13 -4 16 4 11 7
-4 12 -3 12 3 0 6 6 8 13 6 8 -4 12 6 13 30 1 51 22 68 30 25 l7 -33 12 34 c6
19 17 33 24 31 8 -2 10 4 7 16 -4 11 4 31 20 53 l26 34 -6 -45 c-17 -121 -23
-185 -20 -189 2 -2 11 2 21 10 14 12 16 12 11 -1 -3 -9 0 -24 8 -35 17 -23 18
-55 2 -55 -9 0 -10 -3 -2 -8 19 -12 2 -88 -17 -76 -12 7 -12 41 0 46 5 2 3 12
-5 22 -14 19 -14 19 -15 -5 -1 -13 -3 -34 -4 -47 -1 -13 4 -26 11 -29 8 -3 14
-9 14 -14 0 -14 -79 44 -85 63 -3 9 -12 19 -20 22 -17 6 -8 -25 11 -37 19 -11
-3 -67 -26 -67 -18 0 -31 -20 -35 -52 -2 -21 -13 -34 -21 -25 -3 3 1 20 10 37
12 25 13 31 2 27 -15 -6 -26 19 -19 41 5 14 43 17 43 2 0 -5 -7 -7 -15 -4 -8
4 -15 1 -15 -5 0 -6 9 -11 20 -11 22 0 28 35 8 43 -32 12 -70 -24 -73 -68 0
-5 -8 -11 -17 -13 -13 -3 -18 3 -18 22 0 31 -10 37 -46 30 -24 -5 -32 -14 -46
-55 -20 -62 -9 -63 23 -2 27 52 43 60 46 23 1 -14 0 -19 -3 -12 -9 19 -24 14
-24 -8 0 -11 5 -20 10 -20 6 0 10 -7 10 -16 0 -11 -6 -14 -20 -9 -24 7 -27
-10 -4 -19 27 -10 33 -7 36 22 5 46 33 34 33 -14 0 -41 32 -95 62 -105 9 -3 4
-21 -16 -64 -16 -33 -30 -54 -30 -47 -1 6 -7 12 -15 12 -20 0 -27 26 -16 56
14 35 13 36 -9 24 -21 -11 -58 -96 -47 -107 11 -11 35 -12 42 -2 3 5 11 9 17
9 7 0 6 -4 -3 -10 -10 -6 -11 -10 -2 -10 18 0 15 -24 -6 -43 -27 -24 -35 -21
-29 11 5 24 3 27 -21 27 -15 0 -33 -4 -40 -8 -7 -5 -14 -3 -16 5 -2 7 -6 20
-9 30 -7 22 3 30 19 17 11 -9 18 -1 34 36 31 71 41 125 25 125 -8 0 -17 -4
-20 -10 -9 -15 -25 -12 -25 6 0 8 -4 12 -10 9 -5 -3 -10 1 -10 10 0 9 -12 27
-26 40 -14 13 -24 30 -21 37 2 7 -4 24 -15 37 -17 22 -17 25 -2 42 14 15 14
21 4 34 -17 20 -39 19 -48 -3 -4 -9 -14 -17 -22 -17 -9 0 -13 -6 -11 -15 3 -8
5 -27 5 -42 1 -14 4 -24 9 -21 4 2 7 0 7 -5 0 -6 -7 -13 -16 -16 -10 -4 -13
-13 -9 -26 4 -12 2 -20 -5 -20 -11 0 -8 -56 4 -67 8 -8 26 7 26 23 0 10 7 13
23 9 18 -5 23 -2 24 14 1 13 -4 21 -15 22 -15 0 -15 1 -1 7 9 4 15 17 14 29
-1 12 2 20 7 17 4 -3 8 -18 8 -35 0 -16 3 -28 8 -28 26 4 31 -2 22 -27 -13
-34 -13 -35 13 -29 12 3 31 -1 42 -9 18 -13 16 -14 -27 -9 -41 5 -47 3 -59
-18 -11 -22 -11 -23 4 -11 9 8 21 12 28 10 6 -2 -2 -10 -18 -18 -15 -7 -37
-24 -49 -37 -21 -25 -50 -23 -56 3 -3 12 -7 12 -32 -1 -35 -18 -37 -18 -30 -1
3 8 1 17 -5 21 -6 3 -11 1 -11 -4 0 -6 -4 -11 -10 -11 -5 0 -10 9 -10 20 0 11
-4 20 -10 20 -5 0 -10 19 -10 42 0 34 -6 46 -32 70 -30 27 -88 39 -88 19 0
-11 19 -24 38 -27 7 -1 27 -12 45 -23 25 -16 28 -21 12 -21 -14 0 -16 -3 -7
-12 8 -8 6 -16 -10 -30 -22 -19 -48 -24 -48 -9 0 4 9 20 21 35 20 25 16 34 -8
18 -18 -11 -36 -66 -24 -70 14 -5 14 -32 1 -32 -18 0 -10 -29 12 -44 12 -9 17
-16 10 -16 -6 0 -12 -9 -12 -20 0 -11 -5 -20 -11 -20 -5 0 -7 5 -3 11 4 8 -1
9 -17 4 -13 -3 -19 -3 -13 2 24 17 -3 50 -45 57 -25 4 -44 13 -51 26 -7 13
-21 20 -38 20 -32 0 -52 16 -52 43 0 15 -5 13 -26 -12 -14 -17 -32 -31 -40
-31 -8 0 -14 -7 -14 -15 0 -8 7 -15 15 -15 8 0 15 5 15 12 0 6 2 9 5 7 8 -8
-7 -49 -16 -44 -8 6 -24 -42 -35 -106 -3 -18 -8 -45 -10 -58 -4 -21 -3 -23 10
-12 12 10 14 7 11 -21 -7 -60 -26 -126 -40 -138 -11 -9 -11 -17 -1 -43 7 -18
11 -48 8 -67 -2 -19 -5 -51 -5 -70 -1 -19 -9 -43 -18 -53 -15 -17 -17 -17 -23
-1 -6 16 -7 16 -19 1 -8 -11 -20 -15 -35 -10 -19 5 -22 10 -17 30 7 31 34 73
46 73 7 0 2 59 -7 69 -5 6 -34 -27 -34 -39 0 -6 -12 -33 -26 -61 -14 -28 -21
-48 -15 -45 5 3 -4 -21 -20 -54 -16 -33 -29 -65 -29 -70 0 -18 -39 -31 -59
-20 -11 5 -21 13 -23 17 -1 5 -20 16 -41 25 -33 16 -38 16 -43 3 -4 -8 3 -31
15 -50 12 -20 21 -41 21 -47 0 -6 8 -16 17 -23 16 -12 16 -18 4 -64 -15 -60
-9 -92 21 -121 12 -11 18 -20 14 -20 -5 0 -3 -6 3 -14 9 -10 9 -20 2 -33 -5
-10 -9 -28 -8 -38 1 -14 -9 -26 -33 -38 -19 -9 -34 -23 -32 -30 5 -20 34 -37
64 -37 32 0 97 -30 117 -53 14 -17 65 -16 98 2 12 6 33 33 46 59 13 26 37 67
53 91 16 24 38 58 49 76 32 51 45 64 61 58 17 -6 19 -89 3 -130 -7 -17 -11
-88 -10 -186 2 -153 1 -159 -23 -202 -14 -24 -26 -49 -26 -55 0 -7 -6 -26 -14
-43 -23 -50 -56 -171 -56 -204 0 -16 -5 -34 -12 -41 -9 -9 -9 -12 -1 -12 7 0
15 10 19 22 l7 23 9 -25 c7 -20 11 -22 18 -10 5 8 10 27 10 41 0 61 28 98 73
99 5 0 7 -74 5 -165 -1 -90 -5 -160 -6 -155 -2 6 -8 8 -13 4 -14 -8 -11 -45 5
-63 17 -20 31 -81 19 -81 -5 0 -7 -14 -5 -31 3 -21 1 -30 -6 -25 -6 4 -9 13
-6 20 3 8 0 17 -5 21 -6 3 -9 11 -6 16 4 5 1 9 -4 9 -6 0 -11 -13 -11 -29 0
-17 -4 -32 -9 -35 -9 -6 -25 -81 -22 -106 1 -10 -3 -8 -11 5 -17 26 -34 29
-34 5 0 -10 4 -16 8 -14 4 3 8 -6 8 -20 0 -27 15 -35 23 -13 2 6 9 -7 16 -30
8 -31 20 -46 43 -57 34 -17 47 -14 30 7 -14 16 -23 107 -11 107 5 0 9 -16 9
-35 0 -35 11 -63 41 -100 19 -24 33 -58 20 -50 -5 3 -15 -12 -21 -32 -18 -55
-24 -58 -54 -23 -28 33 -34 28 -14 -15 7 -16 19 -25 34 -25 13 0 26 -4 29 -10
10 -16 25 -12 19 5 -4 8 -1 15 5 15 14 0 33 -48 25 -61 -5 -9 -22 -6 -62 8 -8
4 -10 0 -5 -13 5 -13 3 -15 -8 -8 -8 4 -21 9 -29 9 -8 0 -19 14 -25 30 -12 35
-35 56 -54 50 -7 -3 -20 0 -27 6 -10 8 -14 8 -14 0 0 -6 5 -11 11 -11 6 0 9
-9 6 -19 -6 -23 19 -37 27 -16 9 24 34 6 42 -28 3 -18 11 -37 16 -44 5 -7 7
-16 4 -22 -7 -11 22 -23 36 -14 7 3 8 1 4 -5 -4 -7 -2 -12 4 -12 6 0 8 -5 5
-10 -3 -6 5 -14 18 -19 14 -6 27 -16 30 -23 7 -20 19 -2 22 34 4 53 5 54 14
39 5 -8 7 -20 4 -28 -3 -7 0 -13 6 -13 6 0 11 -11 11 -25 0 -14 4 -25 9 -25 5
0 4 -13 -2 -29 -6 -17 -15 -28 -19 -25 -4 3 -8 -6 -8 -19 0 -22 -5 -25 -55
-30 -30 -3 -64 -12 -76 -20 -19 -14 -16 -15 42 -10 l64 6 -32 -27 c-35 -29
-46 -76 -18 -76 13 0 19 17 18 56 0 5 9 10 21 10 12 -1 21 5 21 14 0 10 9 14
25 12 36 -4 44 -17 13 -20 -41 -3 -53 -21 -46 -69 6 -45 28 -58 73 -41 14 5
26 5 29 -1 3 -5 15 -10 26 -12 12 -3 21 -14 23 -28 3 -19 6 -21 13 -10 6 10 9
7 9 -13 0 -16 5 -28 10 -28 7 0 7 -6 0 -19 -13 -25 -13 -27 3 -43 7 -7 21 -43
31 -80 10 -38 22 -68 27 -68 5 0 9 -9 9 -21 0 -15 5 -19 19 -14 22 7 54 -36
44 -60 -3 -10 0 -20 6 -25 10 -6 9 -14 -3 -38 -8 -17 -20 -32 -25 -34 -5 -1
-13 -16 -17 -32 -5 -22 -4 -27 6 -21 10 6 12 3 8 -13 -5 -19 -4 -20 14 -11 14
8 18 17 14 34 -3 13 -1 27 5 31 8 5 8 8 0 14 -17 10 18 48 52 56 29 7 39 -12
11 -23 -13 -5 -13 -7 -2 -14 7 -5 23 -9 34 -9 12 0 25 -7 28 -16 3 -8 10 -13
15 -10 5 3 11 -1 15 -9 6 -17 51 -20 61 -5 3 6 19 8 34 5 37 -6 47 7 56 72 5
41 10 50 22 46 13 -5 15 0 11 25 -4 28 -2 32 19 32 13 0 23 -3 24 -7 0 -5 2
-16 4 -26 2 -10 -7 -23 -23 -33 l-27 -15 25 6 c14 3 37 8 52 11 15 4 29 13 32
21 3 8 1 11 -4 8 -17 -11 -11 7 8 21 14 11 14 13 2 14 -13 0 -13 1 0 10 9 6
10 10 3 10 -7 0 -1 11 13 25 32 32 41 32 20 0 -21 -31 -21 -75 -1 -75 21 0 31
-30 14 -40 -7 -5 -10 -12 -7 -16 4 -3 14 1 23 10 9 8 35 21 58 28 23 7 48 18
55 25 7 7 17 13 22 13 11 0 0 -32 -14 -42 -6 -4 -8 -9 -5 -12 3 -3 17 7 32 22
32 33 23 55 -22 55 -17 0 -31 1 -31 2 0 3 39 75 59 108 17 28 29 37 45 35 18
-3 22 3 26 47 4 36 9 50 20 50 20 0 31 29 36 93 3 43 -1 65 -24 115 -18 37
-32 90 -36 130 -6 53 -11 67 -22 63 -8 -3 -14 -1 -14 4 0 5 -9 11 -19 15 -11
3 -29 22 -40 41 -20 33 -21 34 -39 17 -11 -10 -51 -43 -91 -73 -40 -31 -69
-60 -66 -67 2 -8 -10 -19 -30 -28 -20 -8 -49 -29 -67 -47 -21 -22 -25 -25 -14
-8 9 13 16 28 16 32 0 11 -43 -13 -53 -29 -4 -7 -14 -13 -21 -13 -18 0 -183
-87 -230 -121 -45 -32 -68 -36 -86 -14 -9 11 -9 17 2 28 23 22 124 87 137 87
7 0 19 16 27 35 8 20 19 33 25 30 5 -4 16 -1 24 5 11 9 15 9 15 1 0 -12 32 3
58 27 7 6 18 12 23 12 5 0 9 6 9 14 0 13 58 41 68 32 4 -5 46 30 102 86 21 20
40 34 44 31 10 -10 1 29 -14 59 l-13 28 -47 -26 c-26 -14 -57 -39 -69 -55 -12
-16 -29 -29 -37 -29 -10 0 -14 -6 -10 -15 5 -14 2 -14 -23 0 -27 13 -29 13
-24 -3 6 -24 -31 -56 -56 -49 -20 5 -38 -22 -33 -50 2 -7 -2 -13 -8 -13 -5 0
-10 4 -10 8 0 5 -10 8 -22 7 -15 -1 -27 -14 -40 -44 -15 -36 -16 -42 -3 -37 8
3 15 1 15 -3 0 -12 -26 -21 -57 -21 -22 0 -106 -60 -93 -66 3 -1 1 -6 -4 -11
-5 -5 -6 -2 -1 6 5 9 3 12 -6 9 -8 -3 -13 -11 -11 -18 4 -19 -60 31 -66 52 -5
21 -18 24 -25 6 -2 -7 -4 16 -5 52 0 36 -5 66 -11 68 -6 2 -11 15 -11 29 0 14
-9 36 -20 50 -11 14 -20 36 -20 49 0 12 -4 26 -10 29 -17 10 -11 25 10 25 19
0 25 15 21 48 -1 7 5 19 14 28 23 23 18 35 -12 30 -26 -5 -63 23 -63 48 0 6
-5 4 -10 -4 -8 -13 -10 -12 -10 3 0 9 6 17 14 17 8 0 17 6 20 13 3 6 4 3 1 -8
-2 -11 0 -27 5 -35 6 -9 10 -10 10 -3 0 7 9 10 21 8 38 -8 68 46 33 59 -21 8
-26 8 -20 -2 3 -5 -18 -4 -46 1 l-51 10 7 59 c4 39 2 58 -5 58 -8 0 -9 13 -5
39 4 27 2 43 -6 48 -14 9 -17 31 -23 163 -3 58 -1 75 5 52 4 -19 13 -39 20
-45 10 -10 11 -7 6 13 -4 14 -10 42 -13 62 -3 21 -9 35 -13 33 -12 -8 -22 51
-15 85 4 17 10 28 15 25 4 -3 11 3 15 13 7 16 8 15 16 -3 l9 -20 -3 20 c-2 13
-9 19 -20 17 -9 -2 -17 3 -17 11 0 8 -6 17 -14 20 -8 3 -14 18 -14 34 1 15 -2
38 -6 51 -4 12 -4 36 -1 53 6 28 8 29 24 15 10 -9 22 -16 28 -16 6 0 16 -12
21 -27 l10 -28 1 27 c1 14 6 28 12 30 6 2 2 14 -10 30 -22 28 -27 48 -12 48 5
0 17 7 25 16 15 14 17 13 22 -15 4 -17 13 -36 22 -43 14 -11 15 -10 8 7 -5 11
-8 30 -7 43 0 12 -4 22 -10 22 -5 0 -7 5 -4 10 10 16 25 12 25 -7 0 -15 2 -16
9 -4 8 12 11 9 16 -12 4 -15 11 -27 15 -27 11 0 27 23 28 40 3 50 16 99 25 93
6 -3 23 -7 39 -9 27 -2 29 1 23 23 -6 26 2 25 37 -5 9 -7 22 -11 29 -6 8 4 10
3 5 -4 -4 -7 -2 -12 3 -12 6 0 11 5 11 10 0 6 6 10 13 10 18 0 50 57 37 65 -5
3 -10 -2 -10 -11 0 -22 -9 -13 -15 15 -2 14 1 21 11 21 14 0 13 2 0 16 -9 8
-14 20 -11 24 3 5 -10 12 -30 16 -19 3 -35 10 -35 15 0 17 -51 31 -66 18 -10
-8 -14 -8 -14 0 0 6 -4 11 -10 11 -5 0 -10 -20 -10 -45 0 -25 -4 -45 -10 -45
-5 0 -11 6 -11 13 -1 6 -2 17 -4 22 -1 6 -3 15 -3 21 -1 5 -11 20 -23 32 -15
17 -19 30 -14 52 6 27 25 43 25 21 0 -9 36 -22 43 -14 3 2 -4 26 -14 53 -17
46 -17 49 -1 52 9 2 22 -5 27 -17 7 -13 20 -20 40 -20 26 1 30 4 28 27 -1 22
4 28 28 33 36 8 37 21 2 53 -23 21 -31 23 -55 14 -24 -9 -28 -8 -28 7 0 10 7
17 18 17 9 -1 18 3 19 8 2 15 27 26 46 20 20 -6 23 16 5 34 -16 16 -7 15 30
-4 31 -15 36 -24 33 -51 -1 -7 2 -13 8 -13 5 0 12 -14 16 -31 5 -20 12 -29 20
-25 16 6 38 -17 28 -28 -4 -4 0 -4 10 0 9 3 17 2 17 -4 0 -10 36 -23 73 -27
11 -1 21 4 24 12 3 7 14 13 24 13 10 0 19 7 19 15 0 18 -16 20 -23 3 -3 -8 -6
-6 -6 5 -1 9 -11 27 -23 39 -15 15 -18 23 -9 26 9 3 9 7 0 18 -8 10 -8 14 -1
14 6 0 16 -9 22 -20 8 -15 17 -19 33 -15 17 5 19 4 7 -4 -13 -9 -13 -11 1 -11
24 0 32 41 11 56 -24 18 -86 28 -90 15 -2 -6 -8 -11 -13 -11 -6 0 -7 5 -4 10
15 24 -17 7 -37 -20 -12 -17 -28 -30 -35 -30 -7 0 -13 -5 -13 -11 0 -5 -4 -8
-9 -5 -5 3 -7 15 -4 26 4 14 0 20 -11 20 -9 0 -16 6 -16 13 0 7 -12 24 -26 36
-20 17 -36 22 -64 19 -34 -3 -37 -1 -29 14 7 13 15 16 27 9 22 -11 42 -4 42
15 0 10 10 13 32 12 27 -3 34 1 36 19 3 17 -6 28 -32 44 -20 11 -33 26 -29 32
3 6 1 7 -6 3 -6 -4 -8 -13 -4 -19 4 -7 -5 -4 -19 5 -25 16 -27 16 -33 0 -5
-12 -9 -13 -12 -4 -7 17 -30 15 -37 -4 -5 -12 -2 -15 10 -10 13 5 14 4 6 -7
-8 -9 -9 -24 -2 -45 5 -18 5 -32 0 -32 -4 0 -6 -9 -3 -20 4 -14 0 -20 -11 -20
-9 0 -16 -4 -16 -9 0 -13 -27 -21 -45 -15 -8 4 -12 10 -9 15 3 5 2 9 -3 8 -4
-1 -11 0 -15 1 -5 1 -14 3 -20 4 -7 1 -12 7 -11 14 2 6 -3 9 -11 6 -25 -10
-27 15 -2 31 17 11 27 30 31 58 9 50 24 63 43 36 16 -23 48 -25 56 -4 3 10 -3
17 -19 21 -18 4 -25 13 -25 29 0 13 -5 25 -12 27 -7 3 -6 7 5 11 16 6 23 -8
18 -35 0 -5 4 -8 9 -8 6 0 10 4 10 9 0 5 10 13 23 17 12 4 25 12 29 18 6 8 8
7 8 -1 0 -7 -12 -19 -26 -26 -22 -12 -24 -15 -10 -20 10 -4 15 -3 11 3 -3 5 6
12 20 16 13 3 23 9 21 13 -9 14 13 33 38 34 17 0 25 4 23 11 -3 6 3 12 12 13
96 9 92 10 98 -20 5 -23 10 -28 32 -25 23 3 26 7 26 45 0 37 3 43 25 48 14 4
28 11 31 17 4 6 18 4 39 -7 18 -9 29 -12 26 -6 -5 7 3 11 18 11 14 0 26 -4 26
-9 0 -6 16 -3 36 5 27 11 39 12 49 4 8 -7 19 -9 25 -5 5 3 10 -1 10 -10 0 -9
6 -15 13 -13 12 5 18 58 6 58 -4 0 -7 6 -6 13 1 36 -6 48 -36 61 -67 27 -163
8 -204 -42 -8 -10 -16 -11 -29 -4 -16 9 -14 12 18 28 21 9 35 21 32 26 -3 4
-10 6 -15 3 -5 -4 -9 -2 -9 4 0 6 -8 7 -17 4 -13 -5 -15 -3 -8 13 4 10 8 27 9
36 0 9 4 14 8 12 4 -3 8 0 8 5 0 7 22 9 63 5 38 -3 57 -2 49 3 -10 7 -8 13 7
27 16 14 18 22 9 36 -9 14 -7 22 10 41 25 26 29 44 8 36 -10 -4 -16 2 -18 17
-3 20 -6 22 -35 14 -30 -8 -33 -12 -33 -44 0 -30 3 -35 18 -30 15 6 15 5 2 -7
-8 -8 -25 -18 -37 -22 -22 -6 -22 -6 -8 29 19 44 19 52 0 36 -16 -14 -35 -6
-35 16 0 8 10 14 25 14 31 0 46 26 33 56 -7 15 -16 20 -30 16 -18 -4 -19 -3
-7 16 7 12 15 19 17 17 3 -2 25 14 51 35 l46 40 3 -35 c2 -24 7 -32 17 -29 7
3 16 -3 20 -15 3 -12 15 -21 26 -21 18 0 23 -10 20 -37 -1 -7 7 -13 19 -13 16
0 20 -6 20 -34 0 -19 3 -41 6 -50 4 -10 -1 -18 -12 -23 -11 -4 -25 -15 -32
-25 -7 -10 -22 -18 -32 -18 -11 0 -24 -9 -30 -21 -14 -25 -14 -25 27 -33 26
-6 34 -4 43 13 16 32 38 26 44 -11 8 -52 15 -117 21 -189 6 -61 5 -66 -17 -76
-13 -5 -47 -8 -77 -7 -62 3 -91 -8 -91 -35 0 -18 -31 -35 -59 -31 -8 1 -10 -3
-5 -11 4 -8 3 -10 -4 -5 -7 4 -12 14 -12 22 0 8 -4 14 -10 14 -5 0 -10 -9 -10
-20 0 -12 -7 -20 -17 -21 -11 0 -13 -3 -5 -6 18 -7 15 -33 -5 -33 -15 0 -14
-2 3 -14 10 -8 21 -11 24 -8 3 4 18 8 34 9 35 1 23 -11 -26 -27 -39 -12 -51
-30 -20 -30 9 0 22 -8 29 -19 6 -10 24 -21 40 -24 15 -3 37 -9 47 -13 14 -5
17 -4 12 4 -8 14 6 16 20 3 5 -5 26 -1 49 9 22 10 34 19 28 19 -7 1 -13 5 -13
11 0 5 7 7 15 4 10 -4 15 0 15 11 0 9 6 15 13 12 14 -4 17 -29 3 -39 -6 -4 -5
-13 4 -22 11 -14 10 -16 -3 -10 -20 7 -45 -35 -27 -46 9 -6 7 -13 -9 -29 -22
-22 -37 -28 -26 -11 4 6 -5 10 -21 10 -23 0 -27 -13 -6 -16 34 -4 57 -34 27
-34 -8 0 -15 3 -15 8 0 4 -17 8 -37 8 l-37 2 35 -19 c30 -16 31 -18 10 -19
-16 0 -21 -4 -17 -15 4 -12 -4 -15 -38 -15 -27 0 -48 -6 -56 -15 -10 -13 -9
-15 11 -16 13 -1 28 -1 33 0 77 15 73 16 54 -6 -21 -23 -23 -53 -4 -53 8 0 13
8 12 17 -1 12 7 19 22 21 16 2 22 8 18 18 -4 10 2 14 19 14 46 0 41 -24 -12
-55 -38 -22 -45 -50 -10 -40 19 5 20 5 4 -5 -10 -6 -30 -9 -46 -5 -19 4 -35 0
-53 -15 -14 -11 -31 -20 -36 -20 -5 0 -17 -11 -26 -25 -12 -18 -13 -25 -4 -25
7 0 19 9 26 20 10 16 19 18 52 14 26 -4 40 -2 40 5 0 6 5 11 10 11 6 0 10 -8
8 -17 -2 -12 4 -18 17 -19 11 -1 26 -2 33 -3 7 -1 12 -15 11 -38 0 -21 -3 -32
-6 -25 -7 17 -61 15 -79 -3 -21 -21 -2 -55 27 -48 12 4 25 0 29 -7 7 -11 16
-11 44 -3 20 6 36 9 36 6 0 -2 -16 -19 -35 -37 -41 -39 -47 -71 -12 -64 15 3
24 0 24 -8 0 -27 48 -114 60 -109 18 6 16 -6 -7 -35 -11 -14 -20 -34 -21 -45
0 -13 -3 -15 -6 -6 -3 7 -15 23 -26 34 l-20 20 -17 -24 c-14 -17 -22 -20 -32
-13 -7 6 -22 14 -33 17 -20 7 -20 7 -1 -8 19 -14 19 -15 1 -15 -10 0 -27 -8
-38 -17 -17 -16 -20 -16 -30 -2 -11 14 -14 14 -30 -2 -11 -10 -17 -27 -15 -41
3 -26 51 -54 71 -41 6 4 20 6 30 5 25 -5 47 16 41 36 -5 15 -4 15 6 -1 14 -21
58 -23 66 -2 8 21 36 19 33 -3 -5 -51 2 -82 21 -92 16 -8 18 -8 14 4 -3 8 -1
17 5 21 7 3 11 -2 11 -14 0 -12 4 -21 8 -21 8 0 7 -27 -4 -98 -3 -18 -9 -30
-14 -27 -17 10 -22 -17 -6 -33 14 -15 18 -14 43 9 l28 24 -22 -26 c-13 -14
-23 -34 -23 -45 0 -14 -2 -16 -9 -6 -11 18 -41 -11 -42 -41 -1 -17 -2 -18 -6
-4 -5 21 -23 23 -23 2 0 -8 -4 -15 -10 -15 -5 0 -10 5 -10 11 0 5 -4 8 -10 4
-5 -3 -7 -12 -4 -20 4 -8 11 -12 16 -8 7 4 9 -4 6 -21 -3 -14 -1 -26 3 -26 5
0 9 4 9 9 0 5 9 11 20 14 13 3 20 0 20 -9 0 -8 8 -14 18 -14 10 0 23 -5 30
-12 18 -18 35 5 36 48 1 21 6 39 12 41 6 2 9 -12 7 -37 l-3 -41 57 3 c57 3 59
4 78 43 11 22 23 42 27 45 7 5 25 109 35 194 l5 49 -31 -5 c-17 -2 -31 -1 -31
4 0 4 8 8 18 8 37 0 44 16 48 96 1 44 8 169 14 279 24 438 42 765 46 855 2 52
9 172 15 265 6 94 13 204 15 245 7 145 11 168 28 185 14 15 16 29 10 89 -4 39
-10 78 -14 86 -9 17 -1 70 10 70 4 0 11 21 14 48 4 26 9 64 12 85 5 29 3 37
-10 37 -9 0 -16 6 -17 13 -4 100 -44 202 -105 269 -19 21 -32 44 -28 49 4 8 9
7 15 -2 4 -7 10 -11 13 -8 9 9 -33 49 -51 49 -14 0 -14 2 1 25 9 13 16 31 16
40 0 9 5 13 10 10 6 -3 10 2 11 12 3 46 8 81 19 123 7 26 9 69 5 102 -4 32 -8
88 -9 125 -2 42 -9 81 -20 102 -10 18 -20 67 -23 107 -3 41 -10 77 -14 80 -5
3 -9 14 -9 25 0 10 -9 28 -19 38 -20 20 -61 104 -61 125 0 7 -9 22 -20 34 -12
12 -16 22 -11 22 12 0 3 29 -14 47 -8 7 -12 45 -11 102 1 50 -1 91 -5 91 -5 0
-28 49 -74 164 -14 36 -26 50 -37 48 -9 -1 -20 3 -24 9 -5 8 -3 9 5 4 9 -5 9
-1 -1 16 -7 13 -15 26 -18 29 -3 3 -18 26 -33 52 -21 36 -40 53 -81 73 -30 15
-62 38 -71 51 -8 13 -22 24 -30 24 -8 0 -15 5 -15 11 0 5 -4 7 -10 4 -11 -7
-90 13 -90 23 0 9 -139 10 -220 1z m100 -218 c0 -24 18 -37 32 -23 17 17 37
-10 31 -41 -3 -15 -10 -27 -15 -27 -17 0 -47 -40 -42 -55 3 -7 -1 -33 -10 -57
-15 -43 -15 -43 -16 -10 0 19 -5 31 -12 30 -7 -2 -15 11 -19 27 -9 39 -11 130
-3 122 9 -9 34 19 34 37 0 9 5 16 10 16 6 0 10 -9 10 -19z m-383 -197 c-5 -31
-4 -34 9 -23 22 18 26 6 19 -55 -7 -55 -8 -56 -25 -36 -18 20 -18 20 -24 -10
-3 -16 -9 -43 -12 -59 -4 -20 -11 -28 -20 -24 -8 3 -22 -1 -31 -8 -15 -13 -16
-6 -9 84 4 66 11 104 21 114 16 16 19 8 17 -47 -1 -19 2 -17 10 10 27 90 56
125 45 54z m949 -1692 c1 -28 -2 -52 -5 -52 -4 0 -17 7 -29 16 -13 9 -26 14
-28 11 -3 -3 8 -13 25 -23 29 -17 36 -27 32 -48 -1 -5 5 -6 13 -3 28 11 46
-21 46 -79 0 -42 3 -54 15 -54 14 0 15 10 9 60 -5 44 -3 60 6 60 6 0 14 -9 17
-20 3 -11 10 -20 15 -20 5 0 6 -5 2 -12 -4 -7 -3 -8 4 -4 6 3 16 -3 22 -14 6
-11 7 -20 3 -20 -4 0 -2 -4 6 -9 10 -7 12 -18 5 -47 -7 -34 -8 -35 -12 -14 -2
14 -8 30 -14 37 -5 7 -6 18 -2 25 4 7 4 10 -1 6 -4 -4 -13 -18 -19 -30 -7 -13
-18 -23 -25 -23 -8 0 -22 -24 -32 -54 -15 -44 -17 -62 -9 -93 11 -39 3 -116
-10 -101 -4 4 -10 28 -13 53 -5 33 -4 39 3 23 5 -13 12 -23 15 -23 4 0 4 3 2
8 -21 38 -35 128 -19 118 6 -3 5 4 -1 17 -10 22 -37 33 -37 15 0 -4 4 -8 9 -8
5 0 9 -11 9 -25 0 -50 -28 -14 -32 42 -4 43 -14 34 -21 -19 -9 -76 -36 -169
-46 -162 -5 3 -6 11 -2 17 14 22 24 248 10 240 -5 -3 -4 4 2 15 9 16 7 30 -5
62 -9 22 -21 40 -28 40 -10 0 -13 43 -8 105 2 16 4 17 11 5 6 -8 7 -18 5 -22
-3 -4 2 -8 11 -8 12 0 14 4 7 16 -5 9 -7 26 -4 36 4 16 12 19 51 16 l46 -3 1
-53z m224 -82 c0 -10 5 -22 10 -25 6 -3 10 -28 10 -55 0 -26 4 -50 8 -52 5 -1
12 -15 16 -30 5 -23 3 -28 -11 -28 -14 0 -15 -2 -4 -9 11 -7 12 -24 7 -77 -4
-38 -8 -110 -9 -160 -1 -50 -7 -97 -13 -105 -14 -18 -39 -157 -31 -166 13 -12
17 3 23 80 4 42 11 77 15 77 13 0 11 -42 -7 -128 -21 -108 -23 -112 -45 -112
-11 0 -19 -7 -19 -17 0 -14 2 -15 9 -5 6 10 10 10 20 -2 15 -18 6 -136 -10
-136 -5 0 -9 -19 -9 -43 0 -40 -21 -89 -33 -77 -6 5 8 86 22 130 4 14 5 34 1
45 -6 16 -9 15 -28 -13 -27 -36 -44 -119 -31 -144 5 -9 6 -25 2 -35 -6 -16 -5
-16 10 -4 15 12 17 11 17 -3 0 -16 -26 -33 -35 -24 -3 3 -9 63 -15 134 -12
162 -19 235 -26 302 -4 35 -3 52 5 52 6 0 11 10 11 23 1 20 2 21 14 5 18 -24
36 -23 36 2 0 11 -7 20 -15 20 -14 0 -20 21 -16 61 2 15 -25 45 -38 43 -14 -3
-31 9 -31 22 0 19 10 18 27 -3 13 -17 13 -16 7 6 l-6 24 23 -21 c29 -28 35
-21 12 14 -10 16 -13 25 -8 22 7 -4 10 18 9 65 -2 40 0 62 2 49 3 -13 10 -19
16 -16 7 5 9 0 6 -14 -4 -12 -2 -22 4 -22 5 0 8 -6 5 -12 -2 -7 2 -17 9 -23 8
-5 15 -20 17 -32 2 -12 6 -26 10 -29 4 -4 7 -18 7 -31 0 -13 5 -23 10 -23 6 0
10 9 10 20 0 10 5 31 12 45 9 20 9 28 -2 38 -10 9 -11 9 -6 0 4 -7 2 -13 -4
-13 -7 0 -9 7 -6 16 3 9 6 30 7 47 l1 32 14 -32 c7 -17 19 -35 26 -39 10 -6
10 -4 2 7 -12 15 -16 107 -6 124 10 16 11 35 1 41 -5 3 -9 14 -9 25 0 15 -5
18 -24 13 -20 -5 -24 -1 -29 28 -3 18 -8 42 -12 53 -4 12 -4 15 2 8 16 -22 30
1 37 60 4 31 12 55 17 52 5 -4 9 -15 9 -25z m0 -1043 c-5 -63 -14 -127 -20
-142 -12 -32 -12 -38 -1 -31 15 10 23 -44 16 -118 -9 -108 -17 -304 -15 -373
1 -60 -9 -93 -37 -121 -11 -11 -13 -9 -13 12 0 14 -4 27 -9 31 -6 3 -6 17 0
35 8 21 7 35 -2 52 -8 14 -14 74 -16 158 -2 74 -4 154 -6 178 -1 26 2 42 9 42
14 0 26 28 18 41 -3 5 -11 6 -17 2 -8 -4 -7 -1 1 9 10 13 11 22 2 37 -6 12 -7
21 -3 21 4 0 -1 6 -11 13 -11 8 -17 22 -14 37 4 31 23 36 26 7 1 -13 5 -34 10
-46 7 -20 10 -16 22 28 7 28 17 51 21 51 5 0 8 19 7 43 -1 36 8 80 28 146 12
37 13 -7 4 -112z"/>
<path d="M3906 4455 c-3 -8 -17 -15 -31 -15 -65 0 2 -37 77 -42 21 -2 38 -6
38 -9 0 -9 -88 -21 -100 -14 -5 3 -10 2 -10 -4 0 -18 92 -81 134 -92 23 -6 70
-19 106 -29 72 -20 183 -40 223 -40 43 0 90 -69 131 -195 8 -27 13 -36 10 -20
-3 17 -7 44 -8 61 -2 17 -6 36 -10 43 -5 7 -5 15 -2 18 3 3 1 14 -4 23 -5 10
-12 33 -15 51 -3 19 -8 47 -11 63 -5 18 -2 31 7 36 17 11 -35 88 -71 104 -14
6 -28 15 -32 20 -13 18 -89 34 -151 31 -37 -1 -65 2 -69 8 -5 8 -17 8 -41 -1
-29 -10 -42 -10 -79 3 -55 19 -84 19 -92 0z"/>
<path d="M4620 4373 c0 -3 6 -14 14 -22 16 -18 56 -127 56 -153 0 -11 5 -15
15 -12 9 4 15 1 15 -8 0 -7 8 -18 19 -25 10 -6 28 -31 41 -55 12 -24 32 -61
44 -83 11 -23 31 -55 44 -72 12 -17 22 -35 22 -40 0 -13 133 -276 147 -291 7
-8 18 -23 24 -34 11 -21 11 -21 30 3 20 25 26 69 9 69 -5 0 -21 21 -36 48 -15
26 -44 72 -65 104 -22 31 -39 59 -39 63 0 3 -17 32 -37 63 -20 31 -58 101 -85
154 -27 54 -61 112 -77 130 -15 18 -34 51 -41 73 -15 45 -52 87 -81 92 -10 2
-19 0 -19 -4z"/>
<path d="M4545 3560 c3 -14 7 -36 9 -50 10 -54 26 -93 44 -106 18 -12 18 -16
4 -74 -13 -51 -13 -67 -2 -103 8 -23 17 -46 20 -52 7 -9 19 -41 61 -155 26
-71 68 -156 93 -185 l24 -30 -2 36 c-3 36 -24 84 -80 183 -19 35 -26 59 -23
80 7 50 -39 227 -79 308 -14 27 -24 50 -24 53 2 16 -13 75 -20 75 -4 0 -12 10
-18 23 -11 22 -11 22 -7 -3z"/>
<path d="M5725 2371 c-3 -6 -3 -11 0 -11 4 0 -1 -7 -9 -16 -12 -11 -13 -20 -6
-34 14 -25 13 -53 -1 -44 -6 3 -15 0 -20 -7 -7 -11 -9 -11 -9 3 0 9 4 19 10
23 6 4 5 15 -2 30 -13 28 -27 24 -29 -8 -1 -17 -2 -18 -6 -4 -6 23 -19 22 -26
-3 -3 -11 -12 -20 -20 -20 -15 0 -30 -49 -16 -51 5 -1 15 -2 22 -3 6 0 14 -14
15 -31 2 -16 8 -33 13 -36 6 -3 11 -15 12 -27 2 -26 17 -18 17 9 0 16 5 19 20
14 11 -4 20 -2 20 4 0 6 5 11 11 11 6 0 9 -7 6 -15 -4 -8 -2 -17 3 -20 10 -6
14 6 11 35 -1 13 1 12 11 -1 10 -12 19 -14 35 -8 23 8 23 27 0 57 -6 8 -6 16
0 25 12 15 0 63 -15 60 -12 -3 -15 4 -16 46 -1 26 -20 39 -31 22z"/>
<path d="M6218 2027 c-16 -6 -28 -14 -28 -19 0 -4 -5 -8 -11 -8 -5 0 -7 6 -3
13 4 6 -4 1 -17 -13 -40 -40 -54 -76 -39 -95 9 -11 9 -15 1 -15 -7 0 -9 -4 -6
-10 3 -5 0 -10 -8 -10 -10 0 -13 -8 -9 -27 4 -22 6 -24 11 -9 4 9 9 17 11 16
3 -1 17 4 33 11 17 8 27 20 27 34 0 18 5 21 24 18 27 -6 52 27 42 54 -4 10 -2
13 8 10 10 -4 15 4 18 25 l5 32 -18 -22 c-18 -23 -39 -29 -39 -12 0 6 7 10 15
10 8 0 15 7 15 15 0 8 -1 15 -2 14 -2 -1 -15 -6 -30 -12z"/>
<path d="M5511 1766 c-13 -14 -20 -30 -16 -36 4 -6 1 -17 -5 -25 -10 -12 -9
-15 2 -15 8 0 20 -11 26 -25 12 -27 37 -33 45 -12 4 9 8 8 16 -3 6 -8 11 -10
11 -4 0 6 14 14 30 18 21 4 30 11 30 26 0 11 -5 20 -11 20 -7 0 -9 10 -6 26 3
17 1 24 -8 20 -6 -2 -18 4 -26 15 -19 26 -61 24 -88 -5z"/>
<path d="M5780 1693 c-29 -12 -38 -27 -23 -38 11 -8 2 -11 -39 -12 -79 -1
-149 -14 -155 -29 -3 -8 -13 -14 -22 -14 -17 -1 -59 -50 -42 -50 6 0 16 9 23
20 14 22 48 26 65 9 9 -9 16 -8 27 4 9 9 16 21 16 27 0 7 28 10 87 8 l87 -3
10 -33 c10 -37 -9 -68 -48 -75 -17 -3 -15 -5 7 -6 34 -1 36 -18 2 -18 -25 0
-58 -30 -49 -45 2 -4 -1 -10 -7 -14 -8 -4 -9 -3 -5 4 4 7 1 12 -8 12 -9 0 -16
-8 -16 -19 0 -12 7 -20 18 -20 9 0 24 -2 32 -4 70 -22 69 -21 43 -50 -17 -19
-17 -20 3 -9 12 6 24 8 28 5 3 -3 6 0 6 8 1 11 3 11 10 -2 5 -9 19 -15 32 -13
13 1 38 3 57 3 27 1 32 4 28 20 -3 12 1 18 11 17 8 0 17 6 19 14 3 9 1 11 -4
4 -12 -15 -52 -13 -46 3 3 9 0 11 -10 7 -9 -3 -23 6 -37 25 -17 24 -18 31 -6
31 8 0 22 3 32 7 9 3 15 2 12 -3 -2 -5 7 -20 20 -32 l25 -24 -7 34 c-5 27 -2
39 14 53 11 10 20 23 20 28 0 6 -3 7 -7 4 -3 -4 -12 -2 -20 4 -10 9 -17 8 -28
-1 -17 -14 -21 0 -5 16 6 6 -4 10 -30 11 -30 2 -40 -2 -40 -14 0 -25 -27 3
-33 35 -3 15 -15 37 -27 50 -12 13 -20 24 -19 26 2 1 19 9 38 16 29 12 31 15
15 21 -23 9 -34 9 -54 2z"/>
<path d="M5723 1312 c-18 -2 -33 -8 -33 -14 0 -7 -5 -6 -14 1 -12 10 -17 8
-25 -8 -14 -24 -14 -71 -1 -91 5 -8 10 -11 10 -5 0 5 11 -7 25 -28 36 -52 45
-50 59 14 4 18 14 29 30 33 24 6 24 8 12 39 -7 17 -12 37 -9 43 5 15 -14 20
-54 16z"/>
<path d="M5078 782 c-10 -2 -18 -5 -18 -6 0 -2 -4 -27 -10 -56 -12 -63 -5 -96
19 -96 12 0 17 5 13 14 -4 12 -1 12 16 1 11 -7 23 -21 25 -30 4 -15 1 -16 -19
-9 -15 6 -34 6 -50 0 -35 -14 -22 -31 16 -20 35 10 44 -5 22 -37 -9 -14 -10
-23 -4 -23 6 0 16 9 22 21 7 12 18 18 26 15 8 -3 14 -1 14 5 0 6 5 7 12 3 6
-4 2 8 -10 28 -14 22 -22 52 -22 78 0 26 -7 51 -17 62 -9 10 -11 18 -5 18 18
0 40 -40 35 -61 -3 -10 -1 -19 5 -19 14 0 25 34 13 38 -6 2 -11 16 -11 32 0
22 -6 30 -27 37 -16 5 -36 7 -45 5z"/>
<path d="M6447 609 c-10 -6 -17 -22 -17 -39 0 -16 -5 -41 -12 -57 -6 -15 -10
-32 -9 -36 1 -5 -3 -6 -8 -3 -5 4 -17 -1 -25 -10 -9 -9 -23 -13 -31 -10 -17 6
-20 1 -29 -41 -6 -26 -4 -34 15 -44 17 -9 24 -9 27 -1 2 8 10 7 25 -3 13 -8
32 -12 45 -8 24 6 25 24 2 31 -7 3 -10 0 -6 -7 4 -6 1 -11 -8 -11 -17 0 -18 1
-20 42 -1 15 2 24 6 22 4 -3 8 0 8 5 0 26 31 9 37 -20 5 -24 8 -28 15 -16 9
18 -11 97 -26 97 -4 0 -3 7 4 15 6 8 9 19 5 24 -3 6 3 18 15 28 33 28 23 62
-13 42z"/>
<path d="M6118 440 c-12 -13 -13 -20 -5 -24 8 -3 7 -9 -5 -19 -10 -8 -18 -21
-18 -30 0 -35 -11 -46 -36 -37 -20 8 -24 7 -24 -11 0 -11 5 -29 11 -40 10 -20
10 -20 28 0 10 11 21 18 25 14 3 -3 6 -1 6 5 0 19 24 14 38 -8 13 -22 37 -26
48 -9 13 22 13 110 -1 115 -7 3 -19 19 -25 35 -14 33 -19 34 -42 9z"/>
</g>
</svg>
