<?xml version="1.0" encoding="UTF-8"?>
<svg viewBox="0 0 424.47 449.17001" xmlns="http://www.w3.org/2000/svg" xmlns:xlink="http://www.w3.org/1999/xlink">
 <g transform="translate(970.06 -1775.9)">
  <g transform="translate(1,-1)">
   <path id="a" d="m-734.25033,2086.2357c.69704.6141 1.51528,1.0785 1.96282,1.6294 .43929.5407.47089,1.2467-.0122,1.6785-.47196.4218-1.2949.2163-1.73027-.2159s-.9151-1.4384-1.2939-2.0666-1.9067-3.1772-1.76635-3.3489c.13007-.1592 2.13142,1.6991 2.84005,2.3235z"/>
   <g id="b" transform="matrix(.03734 0 0 .03734 -651.3 1969)">
    <path d="m-1401.2 901.39c-17.415 14.119 23.722 10.953 32.122 17.525 22.648 9.1208 48.651 17.961 63.328 38.662 16.755 27.815-3.4262 59.781-23.158 79.829-17.383 17.599-39.922-4.8235-57.601-10.807-29.637-6.5511-59.258-16.268-90.138-13.706-43.172 2.5366-88.42 10.827-122.86 38.895-15.819 11.723-31.691 24.202-40.3 42.452-18.379 21.505-29.843-23.802-38.929-35.866-13.101-15.205-16.369 24.777-17.46 34.432-18.646 2.0283-32.128 22.274-48.606 21.865-13.722-6.6295-50.107-8.2779-27.613 13.327 19.075 16.645 25.51 42.22 43.451 59.277 19.949 16.725 50.654 12.846 65.017 37.772 24.518 19.902 52.918 34.059 81.139 47.702 24.549 17.211 38.439 44.984 59.036 66.221 15.693 16.984 1.2029 33.778 0.4567 50.47 15.465 8.357 46.793-12.972 32.234-33.115-12.896-27.48-24.333-55.81-32.642-85.02 6.1305-8.0146 12.914 22.381 19.238 28.928 13.278 19.689 22.493 53.899 51.035 53.273 21.839-18.226-7.3381-40.742-17.339-56.713-14.332-22.829-10.894-51.262-12.297-76.988-0.4314-36.015 35.49-0.8604 52.009 2.0144 15.271 12.826 56.919 4.6758 53.505 31.316-2.5882 10.577-6.0672 20.907-9.147 31.346-15.019 1.1943-29.436 30.173-5.741 23.478 24.828-4.1711 32.154-27.736 39.884-48.292 10.468-12.693 4.0728-62.04 28.954-39.59 11.198 19.491 1.7755 44.907-11.233 60.218 7.0516 20.694 35.01-0.9623 38.59-14.746 6.5161-25.353 5.8474-52.5-0.5324-77.789-16.754-17.816-30.38-38.867-33.372-63.934-1.6628-20.44-13.201-50.553 14.886-57.724 20.858-11.943 30.774-35.086 40.503-55.843 6.728-20.099 4.2698-42.46-4.2702-61.727-20.631-39.056-69.75-55.404-111.65-50.344-3.6044 0.6664-7.1733 1.6252-10.5 3.202z"/>
    <path d="m204.14 1809.6c-45.65-1.8949-45.179 53.803-38.982 85.655 11.565 43.458-36.943 57.823-59.518 84.407-45.465 6.5286-92.136-20.853-140.61-14.232-67.477-7.0697-137.32-0.5479-199.45 27.674-39.186 10.003-74.382 28.982-114.15 36.433-40.134-13.319-68.262 16.935-107.5 8.3437-36.937 13.616-52.84 6.6127-90.127 15.737-29.215 7.2476-61.919-5.4959-86.119 20.218-39.457 4.1465-52.097 36.471-43.2 70.634-9.607 19.762-1.15 53.83 6.4103 14.191 2.9281-14.954 12.55-44.779 11.198-11.659 10.602 20.246 26.468 39.708 2.8653 61.289-14.939 47.14 40.107-13.176 39.185 29.472 24.025 34.915 79.389-17.544 76.005-48.569 0.16644 19.219 10.368 66.232 18.127 95.474-3.8241 33.588-22.912 64.694-31.133 98.081-12.806 43.021-25.058 99.082-76.307 106.52-28.73 5.8014-16.289 35.212 8.2588 12.083 29.979 13.197 69.089 10.636 78.117-30.876 26.496-36.796 58.657-68.243 75.269-111.95 26.813-26.074 23.346-85.572 72.659-59.168 23.341 3.7607 59.483-13.258 33.578 7.9429-27.861 28.483-24.465 69.078 9.4698 89.694 13.797 42.01 109.15 23.694 74.186-15.781-15.276-21.748-83.95-4.7697-49.456-45.217 32.584-23.074 39.344-64.064 84.034-70.304 38.489-17.134 72.811-42.117 105.37-68.295 8.043-22.069 61.251-47.892 63.079-29.057 9.2702 20.067 18.581 68.957 50.496 84.168 43.77 17.288 50.943 69.032 89.375 88.188 21.178 17.565 54.935 42.661 57.031 64.906-18.734-36.669-29.492 29.757-41.855 45.683-2.0758 33.898 60.734 24.023 52.825-12.436 8.2224-30.064 25.362 33.707 14.434 46.248-0.66941 27.681-33.438 49.363-37.636 67.526 32.109 19.635 73.93-6.247 68.825-43.87-0.94664-24.614-0.37127-49.621 13.149-71.376 23.365-41.136-32.806-68.454-50.555-104.06 13.896 45.377 44.576-9.6209 31.122-29.948-20.597-24.534-59.631-13.655-29.788-46.366 12.471-35.742 20.207-72.396 25.942-109.63 9.8229-46.464-48.482-72.452-38.323-115.85 22.178-27.865 54.98-51.311 67.871-86.781 25.607-38.472-10.272-77.516 2.2077-117.51 0.12477-4.0625 12.334-15.756 3.6245-17.625zm-269.81 352.97c27.779 2.0753-13.652 0.073 0 0zm53.062 43.406c11.08 13.631 10.581 26.092 0 0zm13.594 33.469c7.139 15.027 1.4787 23.169 0 0zm-301.34 50.438-7.0313 2.625 7.0313-2.625zm430 19.094c1.8591 2.387 0.86462 2.8898 0 0z" stroke="#000" stroke-width="3.2944"/>
    <path d="m-1951 1554.6c4.148 6.5051 10.59 10.423 19.729 9.9791 1.0115 7.8303-2.3064 16.77 6.745 21.314 6.0519 0.3307 11.231 1.9779 19.036 9.2968 8.1914-0.9755 13.88-3.2231 22.94-7.5533 29.534 9.349 113.18 43.616 164.96 51.062 14.44 4.4689 17.101 8.8527 22.339 24.972 8.9524 28.356 33.574 64.485 57.711 87.599 35.453 44.38 63.926 98.668 99.143 148.83 63.124 97.942 123.54 98.869 162.4 100.91 54.236 4.1057 82.903-35.973 115.28-68.524-0.051 0.09-0.138 0.223-0.1862 0.2989 12.232-6.659 17.853-7.6436 24.518-7.6868 29.649-2.7988 42.683-2.7627 75.543 13.411 19.183 8.8186 47.441 50.339 50.214 71.996 5.5989 16.712 7.2099 49.534 0.1335 68.749-1.56 4.98 4.9204 6.6612 7.5433-1.3793 8.2786-17.936 11.061-40.088 9.632-49.279-4.0457-53.829-35.34-91.83-82.395-119.43 27.892 8.8139 61.545 14.869 87.881 18.226 21.513-1.0576 34.183-26.897 101.46-70.779 5.6798-5.0802 10.435-9.6297 7.8146-15.275-4.3858-10.609-15.653-27.087-26.142-31.957-2.9392-3.4332-1.599-4.5949-4.8946-8.6218-2.9172 1.3798-6.6935 4.0851-7.0913 7.5535-5.9226 6.0303-6.5573 11.211-3.7073 17.928 3.349 11.64 7.4711 9.5232 4.8086 16.783-19.751 19.706-59.095 46.921-82.916 42.137-9.8308-4.0087-19.792-7.7293-29.72-11.252 19.107-17.268 46.731-34.93 61.286-46.625 10.374-8.3495 16.954-13.226 9.4819-24.77-3.1596-4.5138-5.7543-8.1543-8.2077-11.484-2.3276-3.8128-6.9021-11.882-10.649-13.218-0.5762-3.6732-1.4174-5.1431-3.8335-5.6766-0.3333-2.6178-1.1097-4.5524-2.7971-5.9403-6.2675 3.422-4.7453 4.5119-8.9036 8.6598-7.7012 14.768 5.942 22.112 4.6006 30.179-9.2655 12.9-32.303 28.597-56.848 43.178-5.7036 3.4816-15.774 9.9477-23.734 13.198-4.299-1.1702-8.6651-2.3287-12.92-3.3545-18.916-11.803-50.958-21.221-71.693-25.067-11.238-3.8214-21.924-4.3135-32.621-2.5701-12.638-5.0188-36.092-1.0155-48.693 3.5549-14.979 4.9917-55.457 25.892-74.036 23.172-27.908-12.821-29.188-38.796-49.613-88.672-9.5929-37.621 6.9108-86.735 2.7738-111.99-6.2533-37.652-17.333-71.501-42.322-100.13 3.0438-1.8581 12.807-2.9804 15.354-2.9228 8.8266-5.388 12.769-12.686 18.95-19.676 23.95-29.917 70.393-53.043 100.45-79.836 13.611-11.935 40.356-16.141 51.017-29.484 13.292-16.568 22.522-39.111 35.509-55.492 15.192-5.249-1.9867-12.128 7.8509-28.197-0.831-7.5396-6.2007-19.133-16.905-27.091-6.1767-6.6941-11.353-5.4892-12.328-10.535-7.9782 4.0683-6.3098 17.1-3.6624 25.548-0.2866 5.5845 0.4284 9.6504 0.7502 13.456-3.3612-5.2019-2.2224-9.5713-8.2547-14.127-3.7339-3.3586-7.4127-1.9295-9.3622-7.1852-4.6413 4.0421-6.4145 9.9794-3.6993 17.185 0.198 5.1069 1.481 9.9741 4.8798 15.542-12.36 34.522-65.19 58.327-96.365 82.597-33.569 26.857-81.617 33.863-115.08 53.753-28.252-11.223-104.94 0.9671-155.83 10.537-27.312 6.6087-55.975 0.7224-85.92 3.7042-5.2505-2.4326-8.6428-3.1093-15.946 1.349-19.145-6.0226-58.681 5.2266-58.425-2.5753-1.5541-15.563-20.589-30.969-22.272-39.203 2.7237-6.4982 2.7344-11.332-6.7373-22.056-6.5338-7.2841-12.859-27.95-17.89-34.138-4.727-6.376-16.564-14.815-28.293-16.915-5.8905-4.8579-8.9064-9.1195-20.097-3.4884-0.4879 6.7405-0.5183 11.613 3.4139 24.914 1.5913 18.354 10.509 45.878-0.4655 66.259-14.813 17.502-1.3804 39.575-6.8535 54.586-2.1875 7.3769-7.4402 10.975-11.166 14.464 0.8997 2.67 1.9506 5.1032 3.3333 7.2718z" fill-rule="evenodd"/>
    <path d="m-730.69 1374.7c28.478 40.299 55.53 82.132 88.149 119.16 30.593 11.679 15.569 58.807 44.992 69.711 12.88-7.1843 29.059-4.0031 40.45-16.16 27.487 1.4533 2.5796-40.411-16.2-40.593-28.051-24.683-47.343-57.865-68.027-88.665-15.894-26.353-41-56.19-21.732-87.627 8.1181-17.264 30.625-29.862 38.352-6.2703 20.61 27.088 40.823 54.753 60.105 82.541 19.083 14.225 43.797 48.285 70.627 36.053-3.9118-18.762 39.477-7.1642 24.37-30.766-16.628-23.564-66.707-2.7167-75.748-43.258-18.487-28.434-29.239-60.377-41.731-91.537-15.061-25.681 8.9794-57.219-11.449-81.46-20.87-23.603-27.27-55.001-44.584-80.564-20.375-28.501-23.765-64.788-41.621-94.756-24.756-27.356 5.0832-55.141 16.027-80.763 5.4117-20.42-2.6497-40.652-13.428-56.961-17.688-28.523-40.722-0.93478-60.47 13.052-11.493 29.265-26.759-17.994-44.522 6.7479-31.27 5.0071-62.205 20.58-83.492 45.521-5.3678 23.515-29.06 49.495-15.18 76.975 2.0306 29.068 38.11 38.558 39.673 71.241 16.119 31.705-25.185 52.663-51.767 51.738-30.44 2.5718-53.689 24.672-79.944 38.104-21.59 11.645-40.256 32.52-67.177 27.726-27.541 0.9002-58.931 6.1299-77.756 27.7-0.6996 34.852 50.287-1.1242 70.294 10.842 22.204 17.765 58.967-8.9349 73.695 8.8451 5.2428 30.341 19.34 60.266 41.42 82.047 3.6568 33.451 21.867 61.588 38.141 90.456 12.362 31.208 17.508 64.621 18.3 98.017 9.6455 11.078 23.545 13.769 35.782 7.7088 3.196-13.014 17.572-19.255 5.8056-36.63-18.22-25.858-30.439-55.67-33.932-87.155-11.012-25.422 4.6723-54.116-3.167-80.54 15.551-22.82 44.432-5.0476 36.19 19.854 17.774 21.643 39.761 39.448 55.644 62.503 14.362-2.4744 25.621-15.336 37.016-15.732 10.679-8.6381 16.551-21.786-2.0939-28.418-23.811 15.929-70.618-22.557-37.21-37.08 28.22 1.8787 48.011 7.5536 56.199 38.397z" stroke="#000" stroke-width="2.0546"/>
    <path d="m-1180.6 2491h194.98c0-27.718-1.979-33.216-47.882-33.216 7.3334-22 37.142-75.225 53.706-75.225 14.655 0 32.137 0.8074 32.137 34.245 0 37.961 63.882 99.166 79.373 74.196 23.085-37.211-39.686-25.864-39.686-115.61 0-122.77 71.651-105.3 71.651-174.27 0-34.51-9.5336-39.17-9.5336-63.843 0-32.608 28.726-30.716 23.137-57.752-3.8607-18.675-6.882-33.652-9.1328-56.236-1.5971-16.024-2.1062-33.103-18.75-32.416-19.556 0.8068-26.975 35.229-57.372 37.697-30.335 2.463-56.2-25.824-67.941-21.784-11.642 4.0063-7.9804 35.588-1.0785 58.02 10.848 35.256 34.51 81.098-8.6274 88s-117.33 13.804-170.82 84.549-51.516 153.77-72.47 179.45c-70.328 86.19-142.4 50.801-142.4 122.51 0 32.104 54.396 55.216 63.024 44.863s-73.308-41.202 18.37-77.647c78.323-31.135 85.314-37.491 109.32-15.529z" fill-rule="evenodd"/>
    <path d="m-586.72 1846.1c4.7218 16.32 10.981 30.567 26.1 39.537 13.364 6.4461 20.654 14.036 37.891 11.928 12.968 4.5559 25.385-1.0022 39.256 1.4403 27.963-6.453 56.391-10.557 80.311-27.636 22.745-11.31 51.077-20.912 75.337-39.086 18.138-14.022 39.212-14.666 59.663-26.84 11.418-7.4968 24.82-8.1894 39.392-8.0924 24.316-1.2911 43.984 11.639 65.334 3.1025 16.774-2.2798 31.439-11.624 44.691-22.625 7.6514-16.605 27.486-22.811 40.896-10.626 8.2823 1.312 18.669 4.327 24.619 6.4267 12.196 3.1996 29.577-5.2 39.468-14.313 8.0418-10.32 25.798-11.413 32.902-26.004 24.384-14.942 37.984-47.086 28.446-75.612-22.803-14.32-30.605 7.7771-54.393-3.8528-9.6306 11.07-6.765 25.559-11.675 36.995-2.8255 10.742-17.376 10.409-17.577-2.4414-1.284-10.457-13.271-16.599-17.759-26.778-3.8162-9.2912-24.553-4.3093-19.138-16.666-10.894-10.539-8.697-28.868-25.146-31.207 4.5486-15.781 1.6461-36.743-7.7566-53.632-7.6571-26.745-10.405-74.666 29.193-63.123 23.107-8.5631 47.918-12.344 71.661-12.981 7.5878-2.5892 12.694 3.5415 15.444-6.6135 2.8592-14.004 24.262-3.1779 28.267-19.142 5.0055-12.781 20.676-23.988 10.028-38.902-17.617-38.923-34.999 21.938-61.919 2.5571-14.953-2.6333-29.905-9.8682-44.594-7.457-17.723-11.176-36.388-17.255-55.383-25.812-16.276-20.648-44.622-23.073-60.03-42.842-14.956-17.171-37.89-31.65-52.625-50.194 7.366-22.75-21.201-63.031-43.415-59.793-11.676-5.9576-25.972 8.1027-39.035 6.0419-25.58-18.884-24.508 18.193-8.2415 29.65-4.4446 24.437-38.677 7.4238-51.014 24.45-5.4084 29.209 31.917 25.279 47.12 41.044 9.1564 11.156 18.827 22.603 26.41 37.078 4.3698 18.383 12.157 38.221 7.8313 58.294 9.0744 35.108-4.0514 71.331 4.6558 106.66-2.788 12.68-2.5015 26.222-2.7914 36.921-0.0676 34.541 1.5842 69.176-0.64749 103.2-1.0251 23.218 21.134 48.68 4.1362 69.016-15.781 5.0191-30.123 17.684-45.777 25.709-16.443 13.746-39.285 23.787-57.684 37.209-16.583 11.03-38.452 12.682-53.824 23.5-6.6977 9.3646-30.838 2.8757-44.331 10.503-21.054 1.3678-60.512 14.599-73.302-9.1587-9.7104-7.2053-23.319-0.2956-30.692 7.8871 0.14401 0.36-1.0703 2.2558-0.29961 2.2715zm526.75-188.74c0.59423-0.5023 0.31994 0.7815 0 0zm69.985-185.98c0.762-2.5508 0.75709-0.4071 0 0z" fill-rule="evenodd"/>
   </g>
   <use transform="matrix(.77883 -.62724 .62724 .77883 -1495.4 -17.105)" width="744.09448" height="1052.3622" xlink:href="#b"/>
   <use transform="matrix(.77241 .63512 -.63512 .77241 1122 811.3)" width="744.09448" height="1052.3622" xlink:href="#b"/>
   <use transform="matrix(.86223 -.50652 .50652 .86223 -1225.2 -164.37)" width="744.09448" height="1052.3622" xlink:href="#b"/>
   <use transform="matrix(-.97861 .20571 -.20571 -.97861 -1091.4 4105.7)" width="744.09448" height="1052.3622" xlink:href="#b"/>
   <g transform="matrix(.069 0 0 .069 -630.85 1924)">
    <path d="m-1127.3 2311.8c-276.92 108.13-424.87 392.5-330.26 634.81 0 0 19.949-56.151 66.98-74.514s139.59-7.8532 152.48-11.178c14.623-3.7728 48.945-69.407 126.99-96.007 59.445-20.322 109.52-15.564 136.33-13.795l173.59 440.27c-10.768 13.043-13.191 35.098-4.8061 56.573 7.963 20.394 23.428 34.451 39.324 37.791 8.3507 27.009 15.43 66.073-9.8274 74.18-39.356 12.633-121.53-35.577-157.26-50.059s-30.588 38.146 5.7897 65.496 143.6 35.736 196.26 15.174c38.173-14.905 15.486-83.949 0.10273-120.94 7.5583-13.256 8.6704-32.436 1.3394-51.211-8.4586-21.663-25.503-36.299-42.406-38.397l-172.89-438.47c17.393-18.841 51.277-61.271 114.94-86.13 81.777-31.931 139.47-8.0354 156.88-14.833 17.327-6.7657 73.886-73.331 120.92-91.695s98.548 6.0022 98.548 6.0022c-94.61-242.3-396.12-351.18-673.04-243.05z"/>
    <path d="m-1299.4 3164c-41.434-15.366-93.009-77.594-90.483-133.04 2.9926-65.691 61.609-143.04 120.99-144.88 60.828-1.8874 126.86 73.295 131.24 140.5 4.0087 61.377-53.886 115.62-101.95 146.08 1.2226 17.038 2.0045 34.89 4.1237 48.259 21.633-1.2301 57.95 4.1291 82.385 19.448 47.555 29.812 60.137 72.776 111.81 132.76 33.602 39.01 68.443 85.896 167.05 37.413 34.88-17.148 54.074-67.434 91.373-76.381 35.356-8.4805 85.973-7.1966 105.91 26.224 9.6451 16.166 3.7575 44.588-9.5614 57.154-27.635 26.073-73.766-7.3168-108.89 2.8726-60.602 17.582-103.44 102.36-165.94 97.697-58.675-4.3745-96.995-73.813-143.26-114.01-17.888-15.539-52.568-23.503-50.173 32.619 5.0406 118.17 7.5694 224.49 27.41 294.59 10.751 37.99 54.992 116.7 76.037 178.08 18.549 54.118 35.792 109.52 43.929 166.7 5.5558 39.054-8.857 81.292 3.0651 118.56 12.158 38.003 41.467 70.691 66.306 96.118 16.223 16.606 30.349 102.54-34.103 62.923-43.475-26.723-79.823-87.4-81.582-113.36-4.9071-72.451-2.3623-160.01-28.394-232.83-14.658-41.005-46.404-86.612-69.382-107.71-30.957 40.242-51.235 80.822-70.021 125.32-40.032 94.833-102.78 164.21-111.91 196.7-6.3238 22.545-3.1192 49.628 0.7536 70.822 3.5401 19.373-24.521 62.625-33.958 45.848-23.383-41.572-46.072-62.19-8.7476-143.73 24.654-53.856 51.605-106.95 69.444-164 15.505-49.587 27-101.18 32.16-153.34 6.7484-68.24-1.2712-137.29-1.8628-205.93-0.778-90.075 1.5623-189.75-2.2184-270.22-60.085 6.6715-72.702 20.362-107.91 48.084-37.185 29.279-49.675 51.268-53.405 145.08-1.9339 48.584 3.0677 88.416 8.7453 143.73 5.331 51.933-41.343 66.139-52.162-0.047-10.706-65.487-13.613-104.17-17.651-163.41-3.8961-57.193 3.5425-104.79 46.315-164.25 45.262-62.916 103.86-143.55 154.1-170.64 2.113-30.24 0.1236-41.333 0.4235-75.832z"/>
   </g>
   <use transform="matrix(-.90101 .43379 -.43379 -.90101 -490.74 4185.8)" width="744.09448" height="1052.3622" xlink:href="#b"/>
   <use transform="matrix(.72753 -.68608 .68608 .72753 -1737.1 90.315)" width="744.09448" height="1052.3622" xlink:href="#b"/>
   <use transform="translate(22.304 -28.437)" width="744.09448" height="1052.3622" xlink:href="#a"/>
   <use transform="translate(-28.437 -23.976)" width="744.09448" height="1052.3622" xlink:href="#a"/>
   <use transform="translate(-11.152 -25.649)" width="744.09448" height="1052.3622" xlink:href="#a"/>
   <use transform="translate(-3.3455 -53.528)" width="744.09448" height="1052.3622" xlink:href="#a"/>
   <use transform="translate(5.0183 -65.795)" width="744.09448" height="1052.3622" xlink:href="#a"/>
   <use transform="translate(20.631 -42.377)" width="744.09448" height="1052.3622" xlink:href="#a"/>
   <use transform="translate(-72.486 -23.976)" width="744.09448" height="1052.3622" xlink:href="#a"/>
   <use transform="translate(36.801 -55.201)" width="744.09448" height="1052.3622" xlink:href="#a"/>
   <use transform="translate(51.298 -50.183)" width="744.09448" height="1052.3622" xlink:href="#a"/>
   <use transform="translate(-49.068 -56.874)" width="744.09448" height="1052.3622" xlink:href="#a"/>
   <use transform="translate(-36.801 -61.335)" width="744.09448" height="1052.3622" xlink:href="#a"/>
   <use transform="translate(-56.874 -67.468)" width="744.09448" height="1052.3622" xlink:href="#a"/>
   <use transform="translate(-110.4 -46.28)" width="744.09448" height="1052.3622" xlink:href="#a"/>
   <use transform="translate(-57.989 -82.523)" width="744.09448" height="1052.3622" xlink:href="#a"/>
   <use transform="translate(-78.062 -78.062)" width="744.09448" height="1052.3622" xlink:href="#a"/>
   <use transform="translate(-62.45 -99.251)" width="744.09448" height="1052.3622" xlink:href="#a"/>
   <use transform="translate(-13.94 -90.887)" width="744.09448" height="1052.3622" xlink:href="#a"/>
   <use transform="translate(43.492 -84.196)" width="744.09448" height="1052.3622" xlink:href="#a"/>
   <use transform="translate(66.911 -79.735)" width="744.09448" height="1052.3622" xlink:href="#a"/>
   <use transform="translate(63.007 -94.79)" width="744.09448" height="1052.3622" xlink:href="#a"/>
   <use transform="translate(41.262 -134.38)" width="744.09448" height="1052.3622" xlink:href="#a"/>
   <use transform="translate(7.8062 -135.49)" width="744.09448" height="1052.3622" xlink:href="#a"/>
   <use transform="translate(-6.1335 -126.57)" width="744.09448" height="1052.3622" xlink:href="#a"/>
   <use transform="translate(-19.516 -126.57)" width="744.09448" height="1052.3622" xlink:href="#a"/>
   <use transform="translate(-41.819 -105.94)" width="744.09448" height="1052.3622" xlink:href="#a"/>
   <use transform="translate(-72.486 -126.57)" width="744.09448" height="1052.3622" xlink:href="#a"/>
   <use transform="translate(-57.432 -5.5759)" width="744.09448" height="1052.3622" xlink:href="#a"/>
   <use transform="translate(-22.861 1.6728)" width="744.09448" height="1052.3622" xlink:href="#a"/>
   <use transform="translate(-119.88 -145.53)" width="744.09448" height="1052.3622" xlink:href="#a"/>
   <use transform="translate(-103.15 -150.55)" width="744.09448" height="1052.3622" xlink:href="#a"/>
   <use transform="translate(-56.874 -151.66)" width="744.09448" height="1052.3622" xlink:href="#a"/>
   <use transform="translate(124.59 115.3)" width="744.09448" height="1052.3622" xlink:href="#a"/>
   <use transform="translate(2.2304 -160.59)" width="744.09448" height="1052.3622" xlink:href="#a"/>
   <use transform="translate(28.147 -198.42)" width="744.09448" height="1052.3622" xlink:href="#a"/>
   <use transform="translate(-100.92 -172.29)" width="744.09448" height="1052.3622" xlink:href="#a"/>
   <use transform="translate(-115.44 -18.509)" width="744.09448" height="1052.3622" xlink:href="#a"/>
   <path d="m-803.25 1777.9c-23.919 0.077-44.31 12.233-52.545 29.379-5.9921-1.9812-12.637-3.0293-19.605-3.0068-23.49 0.076-42.97 12.753-47.151 29.49-3.0132-0.557-6.1706-0.8328-9.4171-0.8223-21.138 0.068-38.188 12.902-38.099 28.65s17.282 28.471 38.42 28.403c6.647-0.022 12.912-1.3179 18.347-3.5559 9.4424 7.1163 24.746 11.732 41.989 11.676 13.889-0.045 26.456-3.1089 35.722-8.0468 8.0228 6.32 19.223 10.214 31.602 10.174 16.083-0.052 30.105-6.7513 37.709-16.71 5.2858 2.2313 11.25 3.5029 17.522 3.4826 21.921-0.071 39.597-15.554 39.49-34.582-0.10308-18.327-16.68-33.235-37.486-34.248-3.6513-22.814-27.609-40.378-56.498-40.284z"/>
   <use transform="matrix(.82481 -.5654 .5654 .82481 -1478.6 -135.29)" width="744.09448" height="1052.3622" xlink:href="#b"/>
   <use transform="translate(-180.66 -187.91)" width="744.09448" height="1052.3622" xlink:href="#a"/>
   <use transform="translate(-187.35 -180.1)" width="744.09448" height="1052.3622" xlink:href="#a"/>
   <use transform="translate(-198.5 -188.46)" width="744.09448" height="1052.3622" xlink:href="#a"/>
   <use transform="translate(-202.4 -174.53)" width="744.09448" height="1052.3622" xlink:href="#a"/>
   <use transform="translate(-210.77 -188.46)" width="744.09448" height="1052.3622" xlink:href="#a"/>
   <use transform="translate(-162.82 -128.8)" width="744.09448" height="1052.3622" xlink:href="#a"/>
   <use transform="translate(-115.71 -7.4775)" width="744.09448" height="1052.3622" xlink:href="#a"/>
   <use transform="translate(-27.832 45.228)" width="744.09448" height="1052.3622" xlink:href="#a"/>
   <use transform="translate(-24.534 -189.58)" width="744.09448" height="1052.3622" xlink:href="#a"/>
   <use transform="translate(-86.426 -178.43)" width="744.09448" height="1052.3622" xlink:href="#a"/>
   <use transform="matrix(.99117 .13259 -.13259 .99117 136.65 182.23)" width="744.09448" height="1052.3622" xlink:href="#b"/>
   <use transform="matrix(.77876 .62732 -.62732 .77876 1184.6 943.84)" width="744.09448" height="1052.3622" xlink:href="#b"/>
   <use transform="matrix(-.99968 .02518 -.02518 -.99968 -1220.6 4227.2)" width="744.09448" height="1052.3622" xlink:href="#b"/>
   <use transform="translate(125.25 -18.172)" width="744.09448" height="1052.3622" xlink:href="#a"/>
   <use transform="translate(150.48 48.648)" width="744.09448" height="1052.3622" xlink:href="#a"/>
   <use transform="translate(54.738 -12.698)" width="744.09448" height="1052.3622" xlink:href="#a"/>
   <use transform="translate(112.76 60.718)" width="744.09448" height="1052.3622" xlink:href="#a"/>
   <use transform="translate(104.65 -34.835)" width="744.09448" height="1052.3622" xlink:href="#a"/>
   <use transform="translate(74.912 -21.291)" width="744.09448" height="1052.3622" xlink:href="#a"/>
   <use transform="translate(103.37 46.761)" width="744.09448" height="1052.3622" xlink:href="#a"/>
   <use transform="translate(-10.415 56.986)" width="744.09448" height="1052.3622" xlink:href="#a"/>
   <use transform="translate(18.925 -8.674)" width="744.09448" height="1052.3622" xlink:href="#a"/>
   <use transform="matrix(-.86276 -.50561 .50561 -.86276 -2388 3588.7)" width="393.16" height="465.32999" xlink:href="#b"/>
   <use transform="translate(73.741)" width="393.16" height="465.32999" xlink:href="#a"/>
   <use transform="translate(-74.751 58.589)" width="393.16" height="465.32999" xlink:href="#a"/>
   <use transform="translate(-36.365 88.893)" width="393.16" height="465.32999" xlink:href="#a"/>
   <path d="m-645.86564,1991.487c-.78584-.2887.10204.9704.0517,1.3655 .14026.9009.35369,1.904-.0299,2.7705-.57209,1.0691-1.98322,1.0327-3.00354.7829-.89683-.2213-.60823-1.3729-.75419-2.0544-.35633-1.076-.61072-2.2119-1.28314-3.1536-.90677-1.3363-2.03731-2.6296-3.59601-3.198-.67837-.2834-1.38206-.5541-2.13208-.4815-1.04121-.1785.19317-1.4122.40643-1.9342 .23739-.7109-1.10768-.052-1.43823.098-.42167-.5592-1.32864-.6049-1.63045-1.1413-.0495-.5669-.69215-1.7657-.95533-.6311-.16934.93-.86686,1.6253-1.07109,2.5269-.15521.9596.55605,1.8705.0309,2.8076-.16985,1.167-.0812,2.3486.0205,3.5147-.0829,1.1165-.7084,2.0929-.99599,3.1595-.24489.8281-1.06057.6842-1.61032.9792 .0275.6559 1.31049,1.2532 1.67844.4012 .63503-.9389 1.32524-1.8473 2.10353-2.6721 .37421.043-.47119.842-.56038,1.17-.37783.8023-1.29917,1.7518-.73354,2.6554 1.00209.3522 1.16675-1.0141 1.48795-1.6402 .45843-.8961 1.43625-1.3292 2.23474-1.866 1.14714-.7022.70582,1.1222.92961,1.7068-.11963.7351.93782,1.9154.018,2.315-.38878.1192-.78664.205-1.18047.3057-.32571-.4587-1.53053-.3676-.86288.2646 .60838.7167 1.50431.5014 2.31149.3565 .60728.093 2.06808-1.0551 1.82346.1721-.41131.7318-1.40666.9153-2.14651.7906-.52904.6217.70008,1.1047 1.21067.9561 .93783-.2755 1.79599-.8158 2.48528-1.5039 .25134-.8779.66622-1.7174 1.41314-2.2925 .62395-.444 1.36946-1.3897 2.13635-.6257 .78172.4408 1.71367.3166 2.56558.232 .77334-.1683 1.44369-.6746 1.89857-1.3168 .85856-1.4083.44421-3.2965-.51891-4.5438-.0904-.1029-.18951-.1989-.30336-.2757z"/>
   <path d="m-877.91561,1984.9033c-.92-1.4369-2.61348-.2289-3.4549.6432-1.08125,1.2848-2.55994.1091-3.85667-.012-1.17386-1.2506-1.33646-3.2646-2.57771-4.6053-1.22962-2.2151-2.9251-4.2115-5.12004-5.5067-1.14553-.9841-2.48009-1.6539-3.56016-2.7106-.45267-1.5127-1.98058-1.7247-2.55861-3.1088-1.20791-.8379-1.33443-1.4743-2.41249-2.4191-.84761-.7382-1.15862-2.0115-2.46353-2.2006-.97231-1.1178-2.23168-.8118-3.08581.1924-.81027.1296-1.67087,1.1182-.29671.5001 .52014-.2309 1.63842-.5757.59653.093-.39197.7581-.64726,1.6604-1.81294,1.4009-1.76177.5532 1.26232.9443-.0617,1.8299-.55301,1.4829 2.23769,2.052 3.11397,1.2837-.58434.4168-1.80337,1.7363-2.53144,2.6002-1.1092.6027-2.46945.6855-3.66664,1.1494-1.59009.5302-3.56709,1.3567-4.89274-.051-.793-.7544-1.42584.2562-.19256.5115 .23876,1.1996 1.15508,2.3408 2.61812,1.7274 1.69302.022 3.34388.3316 5.03659-.097 1.37198.2613 3.11724-1.1196 3.36635.9543 .38516.7944 1.68003,1.5351.47656,1.1971-1.46805-.2417-2.63678.732-2.54012,2.2115-.98921,1.3221 1.6141,3.8457 2.07222,1.9306 .33779-.9331-1.65294-2.6695.32316-2.4813 1.40382.5021 2.80221-.1695 3.9507,1.0635 1.3487.81 2.84816,1.3244 4.34642,1.7593 .84727-.2269 2.77712.847 2.2403,1.3065-.41503.7134-1.71075,2.0458-1.49209,3.3477 .40912,1.7091-1.01963,3.0372-.78196,4.623-.0835,1.0241-.12762,2.5942-.76305,3.1349 .72012-1.3587-1.54191-.2643-2.29385-.3012-1.08115.6629.56664,2.3722 1.51222,1.3491 1.09558-.3927-.48743,1.4978-1.10512,1.4324-.86093.5726-2.22613.035-2.87158.2959 .0875,1.4027 1.77518,2.1271 2.81639,1.1648 .73256-.5563 1.50961-1.0746 2.46467-1.1273 1.75862-.1668 1.39057-2.47 2.09902-3.7757-1.09002,1.3973 1.24932,1.1572 1.58273.3101 .30893-1.1556-.86013-2.1163.77972-1.9045 1.36032-.3844 2.64704-.9332 3.90865-1.5556 1.63151-.6953 1.17695-3.0352 2.72203-3.6546 1.32737.081 2.74724.5821 4.10821.2163 1.72533-.041 2.15063-1.9752 3.64116-2.4505 .12711-.083.74609.04.61673-.2669zm-16.57608-.6884c.53134.8943-.29254-.4176 0,0zm-.19052,2.5528c-.17945.631-.57123.8827 0,0zm-.73222,1.1328c-.30664.5404-.67691.5417 0,0zm-7.99951-8.1351-.23092-.1588 .23092.1588zm8.62975,13.5597c-.0331.1079-.0698.088 0,0z" stroke="#000" stroke-width=".12302"/>
   <path d="m-766.68914,2106.9914c.0298.2866.17944.525.492.663-.0971.2784-.35727.5215-.13099.8245 .19672.1119.3419.2539.48026.6286 .28964.1047.51739.1243.8923.1311 .82999.8058 3.05054,3.3482 4.65512,4.4623 .40753.3905.42314.5813.32859,1.2072-.17494,1.0964.0434,2.7145.46307,3.8897 .44217,2.0745.48563,4.3632.82324,6.6269 .471,4.3255 2.47293,5.3662 3.73657,6.0839 1.74246,1.0435 3.3696.1843 4.99462-.3616l-.0112.01c.51973-.018.72391.043.94716.1531 1.03686.4021 1.47151.6211 2.29846,1.7104 .49318.6151.74289,2.4738.47353,3.2434-.0924.6516-.58712,1.7745-1.14458,2.298-.13525.1402.053.3046.27517.08 .57622-.4606 1.03939-1.1538 1.14526-1.4846 .76457-1.8652.35467-3.6572-.75532-5.3653 .78412.7605 1.80668,1.5251 2.63001,2.0774 .73583.3247 1.59102-.3268 4.57095-.6678 .27461-.075.50939-.1471.51625-.3794 .0309-.4276-.07-1.1662-.33881-1.5041-.0408-.1638.0234-.1802-.0194-.3697-.12068,0-.29177.024-.36301.1337-.29857.1024-.40637.2648-.42345.5367-.0827.4446.0903.4429-.11993.6408-.98887.3279-2.75755.5791-3.47304.021-.26128-.2982-.5317-.589-.80436-.8725 .92663-.2573 2.14425-.3853 2.8258-.5327 .48598-.1054.78715-.1582.73059-.6686-.03-.2036-.0559-.3685-.0822-.5206-.014-.1662-.0319-.5121-.13467-.6194 .0422-.1323.0387-.1955-.0331-.2536 .0328-.093.0391-.1706.006-.2451-.26649.01-.23387.071-.44201.1403-.504.3644-.17119.8377-.35079,1.0847-.525.2759-1.55667.415-2.61999.4917-.24864.021-.69295.069-1.01309.044l-.37536-.328c-.43444-.7103-1.347-1.5603-1.97512-2.0353-.3114-.3154-.66-.5105-1.04636-.631-.33814-.3788-1.18821-.6372-1.6854-.6952-.58361-.084-2.28463-.062-2.85958-.4636-.71769-.8945-.32626-1.7833-.17471-3.7902 .30843-1.4166 1.68038-2.7808 1.96429-3.6932 .42048-1.3618.61623-2.6773.26019-4.0509 .13252-.011.47747.1146.5616.159 .3848-.032.63842-.2102.96161-.3403 1.29974-.5987 3.23715-.5947 4.68849-.9871 .65399-.1711 1.61737.1355 2.1964-.1319 .7208-.3311 1.40577-.9296 2.11323-1.2596 .59505.079.13635-.4382.73342-.8103 .0983-.2657.11274-.7426-.11176-1.1872-.0944-.3268-.28736-.3731-.23559-.5578-.3344,0-.49648.4655-.54928.7919-.10289.1816-.147.3294-.19987.4619-.0253-.23.0858-.3569-.0395-.6098-.0686-.1746-.21531-.1883-.19255-.3964-.22257.057-.38101.2261-.41079.5121-.0791.1737-.11722.3578-.0968.6005-.98972.9462-3.15176.8582-4.59835,1.1475-1.56985.3358-3.2914-.2333-4.7412-.1283-.75582-.8469-3.52052-1.7218-5.37977-2.2526-1.0225-.2358-1.88126-.9114-2.93106-1.3123-.1346-.1691-.23665-.2483-.55487-.2218-.53865-.5211-2.04689-.8062-1.90801-1.0623 .20826-.5457-.16991-1.3783-.0885-1.6813 .19958-.1716.28072-.3328.14369-.8492-.0965-.3525.0377-1.1482-.0269-1.4389-.0513-.292-.30554-.7716-.66209-1.0377-.11552-.2607-.14498-.4534-.6128-.4524-.12893.2169-.21146.3791-.30237.889-.25365.6395-.41587,1.7076-1.12299,2.2048-.78715.3368-.70748,1.2985-1.14115,1.7082-.19637.2098-.43186.2421-.61461.2964-.0147.1044-.0202.203-.0103.2986z" fill-rule="evenodd"/>
   <path d="m-727.50593,1901.7937c1.83476-.1701 3.69259-.2654 5.4987-.6304 .94824-.7721 2.19288.5926 3.09426-.156 .008-.5507.41225-1.0148.23127-1.6101 .55926-.8623-1.25937-.8368-1.61538-.2327-1.32158.4474-2.75488.4529-4.13699.5479-1.14901.023-2.58246.2789-3.24034-.9306-.40715-.5845-.39518-1.5477.51221-1.3578 1.26066-.1618 2.53264-.2999 3.79116-.4057 .81604-.3522 2.37884-.5168 2.48329-1.6129-.67997-.2233.50425-1.4108-.54101-1.3621-1.07249.099-1.33167,2.1076-2.81192,1.6442-1.26465.068-2.49862-.1796-3.73961-.3564-1.11172.01-1.6839-1.3574-2.84906-1.1484-1.15279.2352-2.288-.1432-3.43783-.06-1.30202.1279-2.53925-.439-3.84179-.42-1.34663.2909-1.68931-1.1926-2.31426-2.0244-.55976-.5558-1.36468-.6721-2.09327-.6275-1.25263.04-.78957,1.3001-.70514,2.1998 .73255.9175-1.08115.5303-.61184,1.5663-.421,1.1051-.49392,2.3963-.0838,3.5501 .66073.6121 1.05953,1.863 2.20744,1.9263 .97828.4762 1.95804-.5142 3.04458.045 1.32639.07 1.23436,1.7967.70878,2.6395-.48435,1.0328-.20276,2.1971-.25767,3.297-.0257.9156.30165,1.9088-.35546,2.6904-.48402.908-.90033,2.021-.55347,3.0322 1.11463.6724.90118-1.648 1.66141-2.0722 .98878-.3872.81037-2.0744 1.66018-2.2194 1.07942.3961 2.31049.4979 3.42684.1896 1.15044.5053 2.40033.4408 3.63776.4525 1.24022.1819 2.41723.6383 3.51244,1.2353 .53828-.1055.88451-.505.91658-1.0139-.36151-.3461-.29536-.9275-1.07687-.8708-1.17632.1074-2.36867-.053-3.45255-.5271-1.02782-.1177-1.66378-1.1602-2.66485-1.3992-.44836-.9285.66509-1.5317 1.31711-.8007 1.03165-.1715 2.01758-.551 3.05972-.635 .18807-.5106-.0185-1.1149.18112-1.491-.0803-.5065-.39626-.9416-.95842-.462 .0714,1.0674-2.04653,1.8642-1.8935.5125 .58678-.878 1.13956-1.4125 2.29017-1.1023z" stroke="#000" stroke-width=".07672"/>
   <path d="m-874.22923,2017.9613 3.4106-6.4327c-.91442-.4849-1.13042-.5157-1.93336.9987-.59761-.6268-1.83216-2.5413-1.54242-3.0877 .25634-.4835.58865-1.0462 1.69197-.4613 1.25236.664 4.38904-.373 3.83622-1.3208-.82383-1.4125-1.54748.8569-4.50827-.7129-4.0505-2.1475-2.2206-4.2057-4.49632-5.4123-1.13848-.6036-1.45906-.3706-2.27303-.8022-1.07575-.5704-.51089-1.485-1.50064-1.7736-.6836-.1992-1.23059-.3615-2.01501-.6823-.55661-.2277-1.12892-.5096-1.39746.052-.31557.6592.69049,1.5062.24015,2.5522-.44934,1.0439-1.83502,1.4024-1.90716,1.8604-.0715.4541 1.03458.8858 1.89532,1.0505 1.35288.2588 3.27924.28 2.75235,1.8239s-1.59695,4.1125-.19866,7.1147 4.17204,4.3894 4.65277,5.5299c1.61336,3.8279-.81481,5.5865 1.55094,6.8408 1.05914.5616 2.7732-.8287 2.58254-1.2945s-2.64166,1.6979-2.24037-1.9642c.34278-3.1287.25543-3.4705 1.39982-3.8782z" fill-rule="evenodd"/>
   <path d="m-629.92808,2008.4267c-.52845-.351-1.05074-.6059-1.69798-.4965-.53633.1389-.92724.099-1.36749.5748-.47943.1832-.69934.641-1.15337.9064-.64094.8588-1.35187,1.6619-1.62111,2.7259-.37507.8713-.9505,1.8288-1.20306,2.9321-.17826.8374-.76316,1.3644-1.05198,2.2049-.14441.4892-.50951.8325-.92701,1.1814-.66177.6236-1.53415.7301-1.93638,1.4887-.42297.4697-.61514,1.09-.72716,1.7233 .18284.6579-.23251,1.3134-.90868,1.2899-.26766.1626-.63638.3274-.85658.4112-.42472.2032-.71715.8621-.779,1.3605 .0199.4881-.45951.9479-.30977,1.535-.33406,1.0144.0543,2.2585 1.01466,2.841 .9954-.1424.68426-.9603 1.64278-1.2032 .007-.5478-.42418-.8915-.5603-1.3358-.17883-.3743.24383-.716.55963-.3549 .28905.267.77875.1526 1.1524.3344 .33297.1725.80356-.4699.94753.013 .56482.037.94462.6126 1.4697.2822 .25134.5594.84002,1.0866 1.51557,1.3408 .86372.5772 2.09875,1.8762.69195,2.5032-.45169.8016-1.06732,1.5083-1.72841,2.0995-.1535.2572-.44713.2056-.28038.5613 .25654.468-.6146.6761-.34332,1.2277 .16585.4849-.0101,1.1825.65326,1.3504 1.4415.6837.46765-1.4699 1.70213-1.5679 .48938-.2861 1.09023-.4407 1.45057-.8639 .77471-.1094 1.45323-.3867 2.20103-.6014 .96211.1954 1.8283-.4197 2.74442-.2285 .84058.1283 1.84352-.013 2.71099.1599 .33925.826 2.12549,1.2841 2.68027.6557 .4765-.1121.54438-.8578.96632-1.1144 1.18461-.079.2591-1.1099-.48088-1.0437-.46322-.8035.92277-1.1451.86331-1.928-.55094-.9627-1.51957.05-2.33329-.032-.53011-.097-1.08198-.1895-1.64741-.4189-.56827-.4183-1.269-.7956-1.63022-1.4719-1.10606-.7813-1.60641-2.1301-2.70736-2.9266-.22664-.4286-.5617-.8075-.81168-1.1194-.83151-.9861-1.71496-1.9327-2.47272-2.9561-.53121-.6863-1.77718-.8768-1.78377-1.8665 .32849-.524.43143-1.231.6837-1.8375 .13668-.7885.54515-1.6259.7454-2.4525 .20622-.7145.78942-1.2895.96626-1.9688-.0352-.4285.80921-.8263 1.00953-1.3693 .5669-.5471 1.37174-1.8766 2.30958-1.5084 .45061-.029.67151-.5545.6841-.9656-.0129-.01-.0238-.09-.0464-.072zm-10.45218,18.0924c-.005.029-.0278-.014 0,0zm2.49518,6.9881c.0397.091-.0119.03 0,0z" fill-rule="evenodd"/>
  </g>
 </g>
</svg>
